G04 #@! TF.GenerationSoftware,KiCad,Pcbnew,(5.1.9)-1*
G04 #@! TF.CreationDate,2021-04-15T13:52:47+07:00*
G04 #@! TF.ProjectId,pendulumRobotModule,70656e64-756c-4756-9d52-6f626f744d6f,rev?*
G04 #@! TF.SameCoordinates,Original*
G04 #@! TF.FileFunction,Copper,L1,Top*
G04 #@! TF.FilePolarity,Positive*
%FSLAX46Y46*%
G04 Gerber Fmt 4.6, Leading zero omitted, Abs format (unit mm)*
G04 Created by KiCad (PCBNEW (5.1.9)-1) date 2021-04-15 13:52:47*
%MOMM*%
%LPD*%
G01*
G04 APERTURE LIST*
G04 #@! TA.AperFunction,ComponentPad*
%ADD10C,1.800000*%
G04 #@! TD*
G04 #@! TA.AperFunction,ComponentPad*
%ADD11R,1.800000X1.800000*%
G04 #@! TD*
G04 #@! TA.AperFunction,ComponentPad*
%ADD12R,1.600000X1.600000*%
G04 #@! TD*
G04 #@! TA.AperFunction,ComponentPad*
%ADD13C,1.600000*%
G04 #@! TD*
G04 #@! TA.AperFunction,ComponentPad*
%ADD14R,1.700000X1.700000*%
G04 #@! TD*
G04 #@! TA.AperFunction,ComponentPad*
%ADD15O,1.700000X1.700000*%
G04 #@! TD*
G04 #@! TA.AperFunction,SMDPad,CuDef*
%ADD16R,0.970000X1.270000*%
G04 #@! TD*
G04 #@! TA.AperFunction,ComponentPad*
%ADD17C,3.700000*%
G04 #@! TD*
G04 #@! TA.AperFunction,SMDPad,CuDef*
%ADD18R,1.500000X1.250000*%
G04 #@! TD*
G04 #@! TA.AperFunction,ViaPad*
%ADD19C,0.800000*%
G04 #@! TD*
G04 #@! TA.AperFunction,Conductor*
%ADD20C,0.250000*%
G04 #@! TD*
G04 #@! TA.AperFunction,Conductor*
%ADD21C,0.300000*%
G04 #@! TD*
G04 #@! TA.AperFunction,Conductor*
%ADD22C,1.500000*%
G04 #@! TD*
G04 #@! TA.AperFunction,Conductor*
%ADD23C,0.500000*%
G04 #@! TD*
G04 #@! TA.AperFunction,Conductor*
%ADD24C,1.000000*%
G04 #@! TD*
G04 APERTURE END LIST*
D10*
X96520000Y-96520000D03*
X99060000Y-96520000D03*
X101600000Y-96520000D03*
X96520000Y-93980000D03*
X99060000Y-93980000D03*
X101600000Y-93980000D03*
X96520000Y-91440000D03*
X99060000Y-91440000D03*
D11*
X101600000Y-91440000D03*
D10*
X96520000Y-109220000D03*
X99060000Y-109220000D03*
X101600000Y-109220000D03*
X96520000Y-106680000D03*
X99060000Y-106680000D03*
X101600000Y-106680000D03*
X96520000Y-104140000D03*
X99060000Y-104140000D03*
X101600000Y-104140000D03*
X96520000Y-101600000D03*
X99060000Y-101600000D03*
D11*
X101600000Y-101600000D03*
D10*
X120725001Y-44450000D03*
X120725001Y-46990000D03*
X120725001Y-49530000D03*
X120725001Y-52070000D03*
X120725001Y-54610000D03*
X120725001Y-57150000D03*
X120725001Y-59690000D03*
X120725001Y-62230000D03*
X120725001Y-64770000D03*
X120725001Y-67310000D03*
X120725001Y-69850000D03*
X120725001Y-72390000D03*
X120725001Y-74930000D03*
X120725001Y-77470000D03*
X120725001Y-80010000D03*
X95325001Y-80010000D03*
X95325001Y-77470000D03*
X95325001Y-74930000D03*
X95325001Y-72390000D03*
X95325001Y-69850000D03*
X95325001Y-67310000D03*
X95325001Y-64770000D03*
X95325001Y-62230000D03*
X95325001Y-59690000D03*
X95325001Y-57150000D03*
X95325001Y-54610000D03*
X95325001Y-52070000D03*
X95325001Y-49530000D03*
X95325001Y-46990000D03*
D11*
X95325001Y-44450000D03*
D10*
X101250000Y-60550000D03*
X114650000Y-60550000D03*
X114650000Y-79150000D03*
X101250000Y-79150000D03*
X118110000Y-129540000D03*
X118110000Y-127000000D03*
X118110000Y-124460000D03*
X118110000Y-121920000D03*
X118110000Y-119380000D03*
X118110000Y-116840000D03*
X118110000Y-114300000D03*
X118110000Y-111760000D03*
X105410000Y-111760000D03*
X105410000Y-114300000D03*
X105410000Y-116840000D03*
X105410000Y-119380000D03*
X105410000Y-121920000D03*
X105410000Y-124460000D03*
X105410000Y-127000000D03*
X105410000Y-129540000D03*
X99060000Y-49530000D03*
X101600000Y-49530000D03*
X104140000Y-49530000D03*
X106680000Y-49530000D03*
X109220000Y-49530000D03*
X111760000Y-49530000D03*
X114300000Y-49530000D03*
D11*
X116840000Y-49530000D03*
D12*
X110490000Y-95250000D03*
D13*
X112990000Y-95250000D03*
D14*
X120650000Y-111760000D03*
D15*
X120650000Y-109220000D03*
D14*
X120650000Y-104140000D03*
D15*
X120650000Y-101600000D03*
X120650000Y-99060000D03*
X120650000Y-96520000D03*
D14*
X120650000Y-124460000D03*
D15*
X120650000Y-121920000D03*
X120650000Y-119380000D03*
X120650000Y-116840000D03*
D16*
X95245000Y-40005000D03*
X96525000Y-40005000D03*
D17*
X97790000Y-115570000D03*
X97790000Y-120650000D03*
D13*
X112990000Y-115570000D03*
D12*
X110490000Y-115570000D03*
D13*
X100330000Y-125730000D03*
X95250000Y-125730000D03*
D10*
X105410000Y-109220000D03*
X105410000Y-106680000D03*
X105410000Y-104140000D03*
X105410000Y-101600000D03*
X105410000Y-99060000D03*
X105410000Y-96520000D03*
X105410000Y-93980000D03*
X105410000Y-91440000D03*
X118110000Y-91440000D03*
X118110000Y-93980000D03*
X118110000Y-96520000D03*
X118110000Y-99060000D03*
X118110000Y-101600000D03*
X118110000Y-104140000D03*
X118110000Y-106680000D03*
X118110000Y-109220000D03*
D18*
X113010000Y-104140000D03*
X110510000Y-104140000D03*
D13*
X106640000Y-85725000D03*
D12*
X104140000Y-85725000D03*
D10*
X100330000Y-128905000D03*
X95250000Y-128905000D03*
D19*
X114935000Y-104140000D03*
X102870000Y-74422000D03*
X110236000Y-84582000D03*
X113284000Y-87630000D03*
X117602000Y-87630000D03*
X120904000Y-89408000D03*
X110490000Y-74168000D03*
X107442000Y-128270000D03*
X107442000Y-129286000D03*
X122174000Y-93472000D03*
X102870000Y-113030000D03*
X121920000Y-38735000D03*
X109220000Y-37465000D03*
X94488000Y-86360000D03*
X97790000Y-86360000D03*
X97515010Y-57785000D03*
X96266000Y-86360000D03*
X105490000Y-65325000D03*
X113030000Y-64135000D03*
X99314000Y-66548000D03*
X99314000Y-77470000D03*
X98679000Y-80010000D03*
X108712000Y-97790000D03*
X108204000Y-95504000D03*
X107429300Y-93345000D03*
X121920000Y-41275000D03*
X116205000Y-45720000D03*
X107950000Y-79375000D03*
X107950000Y-80264000D03*
D20*
X113010000Y-95270000D02*
X112990000Y-95250000D01*
X113010000Y-104140000D02*
X114935000Y-104140000D01*
X120650000Y-111760000D02*
X120650000Y-109220000D01*
D21*
X102870000Y-76650315D02*
X102870000Y-74422000D01*
X110236000Y-84582000D02*
X110236000Y-84016315D01*
X110236000Y-84016315D02*
X102870000Y-76650315D01*
D20*
X113284000Y-87630000D02*
X117602000Y-87630000D01*
X121412000Y-109220000D02*
X120650000Y-109220000D01*
X123190000Y-107442000D02*
X121412000Y-109220000D01*
X120904000Y-89408000D02*
X123190000Y-91694000D01*
X123190000Y-91694000D02*
X123190000Y-107442000D01*
D21*
X110490000Y-74990000D02*
X114650000Y-79150000D01*
X110490000Y-74168000D02*
X110490000Y-74990000D01*
D22*
X110490000Y-113270000D02*
X112000000Y-111760000D01*
X110490000Y-115570000D02*
X110490000Y-113270000D01*
X112000000Y-111760000D02*
X118110000Y-111760000D01*
X110490000Y-95250000D02*
X110490000Y-93980000D01*
X113030000Y-91440000D02*
X118110000Y-91440000D01*
X110490000Y-93980000D02*
X113030000Y-91440000D01*
X100330000Y-129540000D02*
X100330000Y-128905000D01*
X102425500Y-131635500D02*
X100330000Y-129540000D01*
X106616500Y-131635500D02*
X102425500Y-131635500D01*
X107442000Y-129286000D02*
X107442000Y-130810000D01*
X107442000Y-130810000D02*
X106616500Y-131635500D01*
X100330000Y-128905000D02*
X100330000Y-125730000D01*
D23*
X104140000Y-121920000D02*
X105410000Y-121920000D01*
X102870000Y-113030000D02*
X102870000Y-120650000D01*
X102870000Y-120650000D02*
X104140000Y-121920000D01*
X105410000Y-124460000D02*
X105410000Y-121920000D01*
X118110000Y-127000000D02*
X117475000Y-127000000D01*
X117475000Y-127000000D02*
X116205000Y-125730000D01*
X116205000Y-125730000D02*
X116205000Y-123190000D01*
X116205000Y-123190000D02*
X114935000Y-121920000D01*
X105410000Y-104140000D02*
X105410000Y-101600000D01*
X105410000Y-104140000D02*
X106682792Y-104140000D01*
X114935000Y-121920000D02*
X108204000Y-121920000D01*
X118110000Y-106680000D02*
X121412000Y-106680000D01*
X121412000Y-106680000D02*
X122428000Y-105664000D01*
X122428000Y-105664000D02*
X122428000Y-94166990D01*
X122428000Y-94166990D02*
X122428000Y-94742000D01*
X122428000Y-93726000D02*
X122174000Y-93472000D01*
X122428000Y-94166990D02*
X122428000Y-93726000D01*
X109220000Y-106680000D02*
X108585000Y-106045000D01*
X108585000Y-121285000D02*
X107950000Y-121920000D01*
X108585000Y-107315000D02*
X108585000Y-121285000D01*
X109220000Y-106680000D02*
X108585000Y-107315000D01*
X108204000Y-121920000D02*
X107950000Y-121920000D01*
X107950000Y-121920000D02*
X105410000Y-121920000D01*
X108585000Y-106042208D02*
X106682792Y-104140000D01*
X108585000Y-106045000D02*
X108585000Y-106042208D01*
X110510000Y-106660000D02*
X110490000Y-106680000D01*
X110510000Y-104140000D02*
X110510000Y-106660000D01*
X118110000Y-106680000D02*
X110490000Y-106680000D01*
X110490000Y-106680000D02*
X109220000Y-106680000D01*
X95325001Y-40085001D02*
X95245000Y-40005000D01*
X95325001Y-44450000D02*
X95325001Y-40085001D01*
X95245000Y-38870000D02*
X95250000Y-38865000D01*
X95245000Y-40005000D02*
X95245000Y-38870000D01*
X95250000Y-38865000D02*
X95250000Y-38100000D01*
X95250000Y-38100000D02*
X95885000Y-37465000D01*
X120650000Y-37465000D02*
X121920000Y-38735000D01*
X95885000Y-37465000D02*
X109220000Y-37465000D01*
X116840000Y-37465000D02*
X120650000Y-37465000D01*
X116840000Y-48130000D02*
X114430000Y-45720000D01*
X116840000Y-49530000D02*
X116840000Y-48130000D01*
X114430000Y-37595000D02*
X114300000Y-37465000D01*
X114430000Y-45720000D02*
X114430000Y-37595000D01*
X109220000Y-37465000D02*
X114300000Y-37465000D01*
X114300000Y-37465000D02*
X116840000Y-37465000D01*
D20*
X95325001Y-64770000D02*
X94234000Y-64770000D01*
X94234000Y-64770000D02*
X94002040Y-65001960D01*
X94002040Y-65001960D02*
X94002040Y-85874040D01*
X94002040Y-85874040D02*
X94488000Y-86360000D01*
D24*
X118110000Y-96520000D02*
X120650000Y-96520000D01*
X118110000Y-99060000D02*
X120650000Y-99060000D01*
X118110000Y-104140000D02*
X120650000Y-104140000D01*
X118110000Y-101600000D02*
X120650000Y-101600000D01*
D20*
X97790000Y-59614999D02*
X95325001Y-57150000D01*
X97790000Y-86360000D02*
X97790000Y-59614999D01*
X97515010Y-58350685D02*
X97790000Y-58625675D01*
X97515010Y-57785000D02*
X97515010Y-58350685D01*
X97790000Y-58625675D02*
X97790000Y-59614999D01*
X97282000Y-69266999D02*
X95325001Y-67310000D01*
X96266000Y-86360000D02*
X97282000Y-85344000D01*
X97282000Y-85344000D02*
X97282000Y-69266999D01*
D24*
X118110000Y-121920000D02*
X120650000Y-121920000D01*
X118110000Y-124460000D02*
X120650000Y-124460000D01*
X118110000Y-119380000D02*
X120650000Y-119380000D01*
X118110000Y-116840000D02*
X120650000Y-116840000D01*
D20*
X101600000Y-48257208D02*
X101600000Y-49530000D01*
X101600000Y-44345000D02*
X101600000Y-48257208D01*
X97260000Y-40005000D02*
X101600000Y-44345000D01*
X96525000Y-40005000D02*
X97260000Y-40005000D01*
X105490000Y-65325000D02*
X106680000Y-64135000D01*
X106680000Y-64135000D02*
X113030000Y-64135000D01*
X109220000Y-49530000D02*
X105918000Y-52832000D01*
X105918000Y-52832000D02*
X103632000Y-55118000D01*
X103632000Y-55118000D02*
X103632000Y-62230000D01*
X103632000Y-62230000D02*
X99314000Y-66548000D01*
X109982000Y-51308000D02*
X111760000Y-49530000D01*
X108458000Y-51308000D02*
X109982000Y-51308000D01*
X98690020Y-76846020D02*
X98690020Y-68695980D01*
X99314000Y-77470000D02*
X98690020Y-76846020D01*
X98690020Y-68695980D02*
X100330000Y-67056000D01*
X100330000Y-67056000D02*
X100330000Y-66294000D01*
X104140000Y-55626000D02*
X108458000Y-51308000D01*
X100330000Y-66294000D02*
X104140000Y-62484000D01*
X104140000Y-62484000D02*
X104140000Y-55626000D01*
X95325001Y-62230000D02*
X95250000Y-62230000D01*
X95325001Y-62230000D02*
X94615000Y-62230000D01*
X103600000Y-108490000D02*
X105410000Y-106680000D01*
X103600000Y-110200000D02*
X103600000Y-108490000D01*
X94052209Y-62230000D02*
X93552030Y-62730179D01*
X95325001Y-62230000D02*
X94052209Y-62230000D01*
X93552030Y-62730179D02*
X93552030Y-108406800D01*
X93552030Y-108406800D02*
X96745230Y-111600000D01*
X96745230Y-111600000D02*
X102200000Y-111600000D01*
X102200000Y-111600000D02*
X103600000Y-110200000D01*
X95325001Y-54610000D02*
X94052209Y-54610000D01*
X94052209Y-54610000D02*
X93102020Y-55560189D01*
X104510001Y-110119999D02*
X105410000Y-109220000D01*
X93102020Y-55560189D02*
X93102020Y-108593200D01*
X93102020Y-108593200D02*
X96638800Y-112129980D01*
X96638800Y-112129980D02*
X102500020Y-112129980D01*
X102500020Y-112129980D02*
X104510001Y-110119999D01*
X101288010Y-122878010D02*
X104510001Y-126100001D01*
X101288010Y-113734010D02*
X101288010Y-122878010D01*
X95325001Y-52070000D02*
X94052209Y-52070000D01*
X94052209Y-52070000D02*
X92652010Y-53470199D01*
X104510001Y-126100001D02*
X105410000Y-127000000D01*
X92652010Y-53470199D02*
X92652010Y-108779600D01*
X92652010Y-108779600D02*
X96452400Y-112579990D01*
X96452400Y-112579990D02*
X100133990Y-112579990D01*
X100133990Y-112579990D02*
X101288010Y-113734010D01*
X94052209Y-49530000D02*
X92202000Y-51380209D01*
X95325001Y-49530000D02*
X94052209Y-49530000D01*
X92202000Y-108966000D02*
X96266000Y-113030000D01*
X92202000Y-51380209D02*
X92202000Y-108966000D01*
X96266000Y-113030000D02*
X99822000Y-113030000D01*
X99822000Y-113030000D02*
X100838000Y-114046000D01*
X100838000Y-114046000D02*
X100838000Y-123698000D01*
X100838000Y-123698000D02*
X103505000Y-126365000D01*
X103505000Y-126365000D02*
X103505000Y-127635000D01*
X103505000Y-127635000D02*
X105410000Y-129540000D01*
X98240010Y-79571010D02*
X98679000Y-80010000D01*
X98240010Y-51622782D02*
X98240010Y-79571010D01*
X99060000Y-49530000D02*
X99060000Y-50802792D01*
X99060000Y-50802792D02*
X98240010Y-51622782D01*
X107442000Y-99060000D02*
X105410000Y-99060000D01*
X108712000Y-97790000D02*
X107442000Y-99060000D01*
X123524029Y-52329028D02*
X123524030Y-60706000D01*
X112268000Y-89916000D02*
X108966000Y-93218000D01*
X108966000Y-97536000D02*
X108966000Y-93218000D01*
X119126000Y-89916000D02*
X112268000Y-89916000D01*
X123524030Y-85517970D02*
X119126000Y-89916000D01*
X123524030Y-60706000D02*
X123524030Y-85517970D01*
X120725001Y-49530000D02*
X123524029Y-52329028D01*
X108712000Y-97790000D02*
X108712000Y-97790000D01*
X108712000Y-97790000D02*
X108966000Y-97536000D01*
X107188000Y-96520000D02*
X105410000Y-96520000D01*
X108204000Y-95504000D02*
X108204000Y-95504000D01*
X123074020Y-54419019D02*
X123074020Y-85205980D01*
X123074020Y-85205980D02*
X118814010Y-89465990D01*
X120725001Y-52070000D02*
X123074020Y-54419019D01*
X111956010Y-89465990D02*
X108204000Y-93218000D01*
X118814010Y-89465990D02*
X111956010Y-89465990D01*
X108204000Y-93218000D02*
X108204000Y-95504000D01*
X107950000Y-95758000D02*
X107188000Y-96520000D01*
X108077000Y-95631000D02*
X107950000Y-95758000D01*
X108204000Y-95504000D02*
X108077000Y-95631000D01*
X106794300Y-93980000D02*
X105410000Y-93980000D01*
X111758320Y-89015980D02*
X107429300Y-93345000D01*
X118502020Y-89015980D02*
X111758320Y-89015980D01*
X122624010Y-84893990D02*
X118502020Y-89015980D01*
X120725001Y-54610000D02*
X122624010Y-56509009D01*
X122624010Y-56509009D02*
X122624010Y-84893990D01*
X107429300Y-93345000D02*
X106794300Y-93980000D01*
X108697890Y-91440000D02*
X105410000Y-91440000D01*
X121412000Y-57150000D02*
X122174000Y-57912000D01*
X120725001Y-57150000D02*
X121412000Y-57150000D01*
X122174000Y-57912000D02*
X122174000Y-84582000D01*
X118190030Y-88565970D02*
X111571919Y-88565971D01*
X122174000Y-84582000D02*
X118190030Y-88565970D01*
X111571919Y-88565971D02*
X108697890Y-91440000D01*
X121920000Y-41275000D02*
X120650000Y-41275000D01*
X120650000Y-41275000D02*
X116205000Y-45720000D01*
D24*
X114650000Y-60550000D02*
X114650000Y-64420000D01*
X114650000Y-64420000D02*
X113665000Y-65405000D01*
X109220000Y-65405000D02*
X113665000Y-65405000D01*
X107950000Y-66675000D02*
X109220000Y-65405000D01*
X107950000Y-79375000D02*
X107950000Y-78105000D01*
D23*
X114650000Y-60550000D02*
X114650000Y-58070000D01*
X118745000Y-53975000D02*
X118110000Y-54610000D01*
X118745000Y-45085000D02*
X118745000Y-53975000D01*
X119380000Y-44450000D02*
X118745000Y-45085000D01*
X120725001Y-44450000D02*
X119380000Y-44450000D01*
X114650000Y-58070000D02*
X118110000Y-54610000D01*
X118110000Y-54610000D02*
X118190001Y-54529999D01*
D24*
X107950000Y-78105000D02*
X107950000Y-66675000D01*
X107950000Y-79375000D02*
X107950000Y-80264000D01*
D22*
X95250000Y-125730000D02*
X97790000Y-123190000D01*
X97790000Y-123190000D02*
X97790000Y-120650000D01*
D20*
X97790000Y-102870000D02*
X99060000Y-104140000D01*
X117602000Y-70433001D02*
X117602000Y-79933800D01*
X95504000Y-102870000D02*
X97790000Y-102870000D01*
X120725001Y-67310000D02*
X117602000Y-70433001D01*
X117602000Y-79933800D02*
X109027820Y-88507980D01*
X94930820Y-102296820D02*
X95504000Y-102870000D01*
X109027820Y-88507980D02*
X95997620Y-88507980D01*
X95997620Y-88507980D02*
X94930820Y-89574780D01*
X94930820Y-89574780D02*
X94930820Y-102296820D01*
X95097600Y-104140000D02*
X96520000Y-104140000D01*
X94480810Y-103523210D02*
X95097600Y-104140000D01*
X117094000Y-68401001D02*
X117094000Y-79794100D01*
X120725001Y-64770000D02*
X117094000Y-68401001D01*
X117094000Y-79794100D02*
X108830130Y-88057970D01*
X108830130Y-88057970D02*
X95763240Y-88057970D01*
X95763240Y-88057970D02*
X94480810Y-89340400D01*
X94480810Y-89340400D02*
X94480810Y-103523210D01*
X102971600Y-104581402D02*
X102143002Y-105410000D01*
X118110000Y-72465001D02*
X118110000Y-80073500D01*
X120725001Y-69850000D02*
X118110000Y-72465001D01*
X118110000Y-80073500D02*
X109225510Y-88957990D01*
X109225510Y-88957990D02*
X104197990Y-88957990D01*
X104197990Y-88957990D02*
X102971600Y-90184380D01*
X102971600Y-90184380D02*
X102971600Y-104581402D01*
X100330000Y-105410000D02*
X99060000Y-106680000D01*
X102143002Y-105410000D02*
X100330000Y-105410000D01*
X94742000Y-106680000D02*
X96520000Y-106680000D01*
X94030800Y-105968800D02*
X94742000Y-106680000D01*
X120725001Y-59690000D02*
X119380000Y-59690000D01*
X116636800Y-62433200D02*
X116636800Y-79603600D01*
X119380000Y-59690000D02*
X116636800Y-62433200D01*
X116636800Y-79603600D02*
X108632440Y-87607960D01*
X94030800Y-89154000D02*
X94030800Y-105968800D01*
X108632440Y-87607960D02*
X95576840Y-87607960D01*
X95576840Y-87607960D02*
X94030800Y-89154000D01*
X100330000Y-107950000D02*
X99060000Y-109220000D01*
X102616000Y-107950000D02*
X100330000Y-107950000D01*
X103435990Y-90366010D02*
X103435990Y-107130010D01*
X119452209Y-74930000D02*
X118618000Y-75764209D01*
X120725001Y-74930000D02*
X119452209Y-74930000D01*
X103435990Y-107130010D02*
X102616000Y-107950000D01*
X118618000Y-75764209D02*
X118618000Y-80225900D01*
X118618000Y-80225900D02*
X109435900Y-89408000D01*
X109435900Y-89408000D02*
X104394000Y-89408000D01*
X104394000Y-89408000D02*
X103435990Y-90366010D01*
X98449990Y-111149990D02*
X96520000Y-109220000D01*
X101956010Y-111149990D02*
X98449990Y-111149990D01*
X103124000Y-109982000D02*
X101956010Y-111149990D01*
X103124000Y-108204000D02*
X103124000Y-109982000D01*
X103886000Y-90932000D02*
X103886000Y-107442000D01*
X119452209Y-77470000D02*
X119126000Y-77796209D01*
X120725001Y-77470000D02*
X119452209Y-77470000D01*
X119126000Y-77796209D02*
X119126000Y-80365600D01*
X103886000Y-107442000D02*
X103124000Y-108204000D01*
X119126000Y-80365600D02*
X109575600Y-89916000D01*
X109575600Y-89916000D02*
X104902000Y-89916000D01*
X104902000Y-89916000D02*
X103886000Y-90932000D01*
M02*
