M48
; DRILL file {KiCad (5.1.9)-1} date 04/15/21 13:55:14
; FORMAT={-:-/ absolute / metric / decimal}
; #@! TF.CreationDate,2021-04-15T13:55:14+07:00
; #@! TF.GenerationSoftware,Kicad,Pcbnew,(5.1.9)-1
; #@! TF.FileFunction,Plated,1,2,PTH
FMAT,2
METRIC
T1C0.400
T2C0.800
T3C1.000
T4C2.000
%
G90
G05
T1
X94.488Y-86.36
X96.266Y-86.36
X97.515Y-57.785
X97.79Y-86.36
X98.679Y-80.01
X99.314Y-66.548
X99.314Y-77.47
X102.87Y-74.422
X102.87Y-113.03
X105.49Y-65.325
X107.429Y-93.345
X107.442Y-128.27
X107.442Y-129.286
X107.95Y-79.375
X107.95Y-80.264
X108.204Y-95.504
X108.712Y-97.79
X109.22Y-37.465
X110.236Y-84.582
X110.49Y-74.168
X113.03Y-64.135
X113.284Y-87.63
X114.935Y-104.14
X116.205Y-45.72
X117.602Y-87.63
X120.904Y-89.408
X121.92Y-38.735
X121.92Y-41.275
X122.174Y-93.472
T2
X95.25Y-125.73
X100.33Y-125.73
X104.14Y-85.725
X106.64Y-85.725
X110.49Y-95.25
X110.49Y-115.57
X112.99Y-95.25
X112.99Y-115.57
T3
X95.25Y-128.905
X95.325Y-44.45
X95.325Y-46.99
X95.325Y-49.53
X95.325Y-52.07
X95.325Y-54.61
X95.325Y-57.15
X95.325Y-59.69
X95.325Y-62.23
X95.325Y-64.77
X95.325Y-67.31
X95.325Y-69.85
X95.325Y-72.39
X95.325Y-74.93
X95.325Y-77.47
X95.325Y-80.01
X96.52Y-91.44
X96.52Y-93.98
X96.52Y-96.52
X96.52Y-101.6
X96.52Y-104.14
X96.52Y-106.68
X96.52Y-109.22
X99.06Y-49.53
X99.06Y-91.44
X99.06Y-93.98
X99.06Y-96.52
X99.06Y-101.6
X99.06Y-104.14
X99.06Y-106.68
X99.06Y-109.22
X100.33Y-128.905
X101.25Y-60.55
X101.25Y-79.15
X101.6Y-49.53
X101.6Y-91.44
X101.6Y-93.98
X101.6Y-96.52
X101.6Y-101.6
X101.6Y-104.14
X101.6Y-106.68
X101.6Y-109.22
X104.14Y-49.53
X105.41Y-91.44
X105.41Y-93.98
X105.41Y-96.52
X105.41Y-99.06
X105.41Y-101.6
X105.41Y-104.14
X105.41Y-106.68
X105.41Y-109.22
X105.41Y-111.76
X105.41Y-114.3
X105.41Y-116.84
X105.41Y-119.38
X105.41Y-121.92
X105.41Y-124.46
X105.41Y-127.0
X105.41Y-129.54
X106.68Y-49.53
X109.22Y-49.53
X111.76Y-49.53
X114.3Y-49.53
X114.65Y-60.55
X114.65Y-79.15
X116.84Y-49.53
X118.11Y-91.44
X118.11Y-93.98
X118.11Y-96.52
X118.11Y-99.06
X118.11Y-101.6
X118.11Y-104.14
X118.11Y-106.68
X118.11Y-109.22
X118.11Y-111.76
X118.11Y-114.3
X118.11Y-116.84
X118.11Y-119.38
X118.11Y-121.92
X118.11Y-124.46
X118.11Y-127.0
X118.11Y-129.54
X120.65Y-96.52
X120.65Y-99.06
X120.65Y-101.6
X120.65Y-104.14
X120.65Y-109.22
X120.65Y-111.76
X120.65Y-116.84
X120.65Y-119.38
X120.65Y-121.92
X120.65Y-124.46
X120.725Y-44.45
X120.725Y-46.99
X120.725Y-49.53
X120.725Y-52.07
X120.725Y-54.61
X120.725Y-57.15
X120.725Y-59.69
X120.725Y-62.23
X120.725Y-64.77
X120.725Y-67.31
X120.725Y-69.85
X120.725Y-72.39
X120.725Y-74.93
X120.725Y-77.47
X120.725Y-80.01
T4
X97.79Y-115.57
X97.79Y-120.65
T0
M30
