G04 #@! TF.GenerationSoftware,KiCad,Pcbnew,(5.1.9)-1*
G04 #@! TF.CreationDate,2021-04-15T13:52:47+07:00*
G04 #@! TF.ProjectId,pendulumRobotModule,70656e64-756c-4756-9d52-6f626f744d6f,rev?*
G04 #@! TF.SameCoordinates,Original*
G04 #@! TF.FileFunction,Legend,Bot*
G04 #@! TF.FilePolarity,Positive*
%FSLAX46Y46*%
G04 Gerber Fmt 4.6, Leading zero omitted, Abs format (unit mm)*
G04 Created by KiCad (PCBNEW (5.1.9)-1) date 2021-04-15 13:52:47*
%MOMM*%
%LPD*%
G01*
G04 APERTURE LIST*
%ADD10C,0.200000*%
%ADD11C,0.250000*%
%ADD12C,0.120000*%
%ADD13C,0.150000*%
%ADD14C,2.200000*%
%ADD15C,3.600000*%
%ADD16C,2.000000*%
%ADD17O,2.100000X2.100000*%
%ADD18C,4.100000*%
G04 APERTURE END LIST*
D10*
X112624571Y-37598571D02*
X112957904Y-37598571D01*
X112957904Y-38122380D02*
X112957904Y-37122380D01*
X112481714Y-37122380D01*
X111719809Y-38074761D02*
X111815047Y-38122380D01*
X112005523Y-38122380D01*
X112100761Y-38074761D01*
X112148380Y-37979523D01*
X112148380Y-37598571D01*
X112100761Y-37503333D01*
X112005523Y-37455714D01*
X111815047Y-37455714D01*
X111719809Y-37503333D01*
X111672190Y-37598571D01*
X111672190Y-37693809D01*
X112148380Y-37789047D01*
X111243619Y-38122380D02*
X111243619Y-37122380D01*
X111243619Y-37503333D02*
X111148380Y-37455714D01*
X110957904Y-37455714D01*
X110862666Y-37503333D01*
X110815047Y-37550952D01*
X110767428Y-37646190D01*
X110767428Y-37931904D01*
X110815047Y-38027142D01*
X110862666Y-38074761D01*
X110957904Y-38122380D01*
X111148380Y-38122380D01*
X111243619Y-38074761D01*
X110338857Y-38122380D02*
X110338857Y-37455714D01*
X110338857Y-37646190D02*
X110291238Y-37550952D01*
X110243619Y-37503333D01*
X110148380Y-37455714D01*
X110053142Y-37455714D01*
X109291238Y-37455714D02*
X109291238Y-38122380D01*
X109719809Y-37455714D02*
X109719809Y-37979523D01*
X109672190Y-38074761D01*
X109576952Y-38122380D01*
X109434095Y-38122380D01*
X109338857Y-38074761D01*
X109291238Y-38027142D01*
X108386476Y-38122380D02*
X108386476Y-37598571D01*
X108434095Y-37503333D01*
X108529333Y-37455714D01*
X108719809Y-37455714D01*
X108815047Y-37503333D01*
X108386476Y-38074761D02*
X108481714Y-38122380D01*
X108719809Y-38122380D01*
X108815047Y-38074761D01*
X108862666Y-37979523D01*
X108862666Y-37884285D01*
X108815047Y-37789047D01*
X108719809Y-37741428D01*
X108481714Y-37741428D01*
X108386476Y-37693809D01*
X107910285Y-38122380D02*
X107910285Y-37455714D01*
X107910285Y-37646190D02*
X107862666Y-37550952D01*
X107815047Y-37503333D01*
X107719809Y-37455714D01*
X107624571Y-37455714D01*
X107386476Y-37455714D02*
X107148380Y-38122380D01*
X106910285Y-37455714D02*
X107148380Y-38122380D01*
X107243619Y-38360476D01*
X107291238Y-38408095D01*
X107386476Y-38455714D01*
X105815047Y-37217619D02*
X105767428Y-37170000D01*
X105672190Y-37122380D01*
X105434095Y-37122380D01*
X105338857Y-37170000D01*
X105291238Y-37217619D01*
X105243619Y-37312857D01*
X105243619Y-37408095D01*
X105291238Y-37550952D01*
X105862666Y-38122380D01*
X105243619Y-38122380D01*
X104624571Y-37122380D02*
X104529333Y-37122380D01*
X104434095Y-37170000D01*
X104386476Y-37217619D01*
X104338857Y-37312857D01*
X104291238Y-37503333D01*
X104291238Y-37741428D01*
X104338857Y-37931904D01*
X104386476Y-38027142D01*
X104434095Y-38074761D01*
X104529333Y-38122380D01*
X104624571Y-38122380D01*
X104719809Y-38074761D01*
X104767428Y-38027142D01*
X104815047Y-37931904D01*
X104862666Y-37741428D01*
X104862666Y-37503333D01*
X104815047Y-37312857D01*
X104767428Y-37217619D01*
X104719809Y-37170000D01*
X104624571Y-37122380D01*
X103338857Y-38122380D02*
X103910285Y-38122380D01*
X103624571Y-38122380D02*
X103624571Y-37122380D01*
X103719809Y-37265238D01*
X103815047Y-37360476D01*
X103910285Y-37408095D01*
X102862666Y-38122380D02*
X102672190Y-38122380D01*
X102576952Y-38074761D01*
X102529333Y-38027142D01*
X102434095Y-37884285D01*
X102386476Y-37693809D01*
X102386476Y-37312857D01*
X102434095Y-37217619D01*
X102481714Y-37170000D01*
X102576952Y-37122380D01*
X102767428Y-37122380D01*
X102862666Y-37170000D01*
X102910285Y-37217619D01*
X102957904Y-37312857D01*
X102957904Y-37550952D01*
X102910285Y-37646190D01*
X102862666Y-37693809D01*
X102767428Y-37741428D01*
X102576952Y-37741428D01*
X102481714Y-37693809D01*
X102434095Y-37646190D01*
X102386476Y-37550952D01*
X122076952Y-39155714D02*
X122076952Y-39965238D01*
X122124571Y-40060476D01*
X122172190Y-40108095D01*
X122267428Y-40155714D01*
X122410285Y-40155714D01*
X122505523Y-40108095D01*
X122076952Y-39774761D02*
X122172190Y-39822380D01*
X122362666Y-39822380D01*
X122457904Y-39774761D01*
X122505523Y-39727142D01*
X122553142Y-39631904D01*
X122553142Y-39346190D01*
X122505523Y-39250952D01*
X122457904Y-39203333D01*
X122362666Y-39155714D01*
X122172190Y-39155714D01*
X122076952Y-39203333D01*
X121600761Y-39822380D02*
X121600761Y-39155714D01*
X121600761Y-38822380D02*
X121648380Y-38870000D01*
X121600761Y-38917619D01*
X121553142Y-38870000D01*
X121600761Y-38822380D01*
X121600761Y-38917619D01*
X121267428Y-39155714D02*
X120886476Y-39155714D01*
X121124571Y-38822380D02*
X121124571Y-39679523D01*
X121076952Y-39774761D01*
X120981714Y-39822380D01*
X120886476Y-39822380D01*
X120410285Y-39822380D02*
X120505523Y-39774761D01*
X120553142Y-39679523D01*
X120553142Y-38822380D01*
X119600761Y-39822380D02*
X119600761Y-39298571D01*
X119648380Y-39203333D01*
X119743619Y-39155714D01*
X119934095Y-39155714D01*
X120029333Y-39203333D01*
X119600761Y-39774761D02*
X119696000Y-39822380D01*
X119934095Y-39822380D01*
X120029333Y-39774761D01*
X120076952Y-39679523D01*
X120076952Y-39584285D01*
X120029333Y-39489047D01*
X119934095Y-39441428D01*
X119696000Y-39441428D01*
X119600761Y-39393809D01*
X119124571Y-39822380D02*
X119124571Y-38822380D01*
X119124571Y-39203333D02*
X119029333Y-39155714D01*
X118838857Y-39155714D01*
X118743619Y-39203333D01*
X118696000Y-39250952D01*
X118648380Y-39346190D01*
X118648380Y-39631904D01*
X118696000Y-39727142D01*
X118743619Y-39774761D01*
X118838857Y-39822380D01*
X119029333Y-39822380D01*
X119124571Y-39774761D01*
X118219809Y-39727142D02*
X118172190Y-39774761D01*
X118219809Y-39822380D01*
X118267428Y-39774761D01*
X118219809Y-39727142D01*
X118219809Y-39822380D01*
X117315047Y-39774761D02*
X117410285Y-39822380D01*
X117600761Y-39822380D01*
X117696000Y-39774761D01*
X117743619Y-39727142D01*
X117791238Y-39631904D01*
X117791238Y-39346190D01*
X117743619Y-39250952D01*
X117696000Y-39203333D01*
X117600761Y-39155714D01*
X117410285Y-39155714D01*
X117315047Y-39203333D01*
X116743619Y-39822380D02*
X116838857Y-39774761D01*
X116886476Y-39727142D01*
X116934095Y-39631904D01*
X116934095Y-39346190D01*
X116886476Y-39250952D01*
X116838857Y-39203333D01*
X116743619Y-39155714D01*
X116600761Y-39155714D01*
X116505523Y-39203333D01*
X116457904Y-39250952D01*
X116410285Y-39346190D01*
X116410285Y-39631904D01*
X116457904Y-39727142D01*
X116505523Y-39774761D01*
X116600761Y-39822380D01*
X116743619Y-39822380D01*
X115981714Y-39822380D02*
X115981714Y-39155714D01*
X115981714Y-39250952D02*
X115934095Y-39203333D01*
X115838857Y-39155714D01*
X115696000Y-39155714D01*
X115600761Y-39203333D01*
X115553142Y-39298571D01*
X115553142Y-39822380D01*
X115553142Y-39298571D02*
X115505523Y-39203333D01*
X115410285Y-39155714D01*
X115267428Y-39155714D01*
X115172190Y-39203333D01*
X115124571Y-39298571D01*
X115124571Y-39822380D01*
X113934095Y-38774761D02*
X114791238Y-40060476D01*
X113600761Y-39822380D02*
X113600761Y-38822380D01*
X113505523Y-39441428D02*
X113219809Y-39822380D01*
X113219809Y-39155714D02*
X113600761Y-39536666D01*
X112648380Y-39822380D02*
X112743619Y-39774761D01*
X112791238Y-39679523D01*
X112791238Y-38822380D01*
X112124571Y-39822380D02*
X112219809Y-39774761D01*
X112267428Y-39727142D01*
X112315047Y-39631904D01*
X112315047Y-39346190D01*
X112267428Y-39250952D01*
X112219809Y-39203333D01*
X112124571Y-39155714D01*
X111981714Y-39155714D01*
X111886476Y-39203333D01*
X111838857Y-39250952D01*
X111791238Y-39346190D01*
X111791238Y-39631904D01*
X111838857Y-39727142D01*
X111886476Y-39774761D01*
X111981714Y-39822380D01*
X112124571Y-39822380D01*
X111362666Y-39155714D02*
X111362666Y-40155714D01*
X111362666Y-39203333D02*
X111267428Y-39155714D01*
X111076952Y-39155714D01*
X110981714Y-39203333D01*
X110934095Y-39250952D01*
X110886476Y-39346190D01*
X110886476Y-39631904D01*
X110934095Y-39727142D01*
X110981714Y-39774761D01*
X111076952Y-39822380D01*
X111267428Y-39822380D01*
X111362666Y-39774761D01*
X110457904Y-39155714D02*
X110457904Y-40155714D01*
X110457904Y-39203333D02*
X110362666Y-39155714D01*
X110172190Y-39155714D01*
X110076952Y-39203333D01*
X110029333Y-39250952D01*
X109981714Y-39346190D01*
X109981714Y-39631904D01*
X110029333Y-39727142D01*
X110076952Y-39774761D01*
X110172190Y-39822380D01*
X110362666Y-39822380D01*
X110457904Y-39774761D01*
X109172190Y-39774761D02*
X109267428Y-39822380D01*
X109457904Y-39822380D01*
X109553142Y-39774761D01*
X109600761Y-39679523D01*
X109600761Y-39298571D01*
X109553142Y-39203333D01*
X109457904Y-39155714D01*
X109267428Y-39155714D01*
X109172190Y-39203333D01*
X109124571Y-39298571D01*
X109124571Y-39393809D01*
X109600761Y-39489047D01*
X108696000Y-39822380D02*
X108696000Y-39155714D01*
X108696000Y-39346190D02*
X108648380Y-39250952D01*
X108600761Y-39203333D01*
X108505523Y-39155714D01*
X108410285Y-39155714D01*
X108219809Y-39155714D02*
X107838857Y-39155714D01*
X108076952Y-38822380D02*
X108076952Y-39679523D01*
X108029333Y-39774761D01*
X107934095Y-39822380D01*
X107838857Y-39822380D01*
X107505523Y-39155714D02*
X107505523Y-40012857D01*
X107553142Y-40108095D01*
X107648380Y-40155714D01*
X107696000Y-40155714D01*
X107505523Y-38822380D02*
X107553142Y-38870000D01*
X107505523Y-38917619D01*
X107457904Y-38870000D01*
X107505523Y-38822380D01*
X107505523Y-38917619D01*
X106648380Y-39774761D02*
X106743619Y-39822380D01*
X106934095Y-39822380D01*
X107029333Y-39774761D01*
X107076952Y-39679523D01*
X107076952Y-39298571D01*
X107029333Y-39203333D01*
X106934095Y-39155714D01*
X106743619Y-39155714D01*
X106648380Y-39203333D01*
X106600761Y-39298571D01*
X106600761Y-39393809D01*
X107076952Y-39489047D01*
X105457904Y-38774761D02*
X106315047Y-40060476D01*
X104791238Y-39298571D02*
X104648380Y-39346190D01*
X104600761Y-39393809D01*
X104553142Y-39489047D01*
X104553142Y-39631904D01*
X104600761Y-39727142D01*
X104648380Y-39774761D01*
X104743619Y-39822380D01*
X105124571Y-39822380D01*
X105124571Y-38822380D01*
X104791238Y-38822380D01*
X104696000Y-38870000D01*
X104648380Y-38917619D01*
X104600761Y-39012857D01*
X104600761Y-39108095D01*
X104648380Y-39203333D01*
X104696000Y-39250952D01*
X104791238Y-39298571D01*
X105124571Y-39298571D01*
X103696000Y-39822380D02*
X103696000Y-39298571D01*
X103743619Y-39203333D01*
X103838857Y-39155714D01*
X104029333Y-39155714D01*
X104124571Y-39203333D01*
X103696000Y-39774761D02*
X103791238Y-39822380D01*
X104029333Y-39822380D01*
X104124571Y-39774761D01*
X104172190Y-39679523D01*
X104172190Y-39584285D01*
X104124571Y-39489047D01*
X104029333Y-39441428D01*
X103791238Y-39441428D01*
X103696000Y-39393809D01*
X103076952Y-39822380D02*
X103172190Y-39774761D01*
X103219809Y-39679523D01*
X103219809Y-38822380D01*
X102267428Y-39822380D02*
X102267428Y-39298571D01*
X102315047Y-39203333D01*
X102410285Y-39155714D01*
X102600761Y-39155714D01*
X102696000Y-39203333D01*
X102267428Y-39774761D02*
X102362666Y-39822380D01*
X102600761Y-39822380D01*
X102696000Y-39774761D01*
X102743619Y-39679523D01*
X102743619Y-39584285D01*
X102696000Y-39489047D01*
X102600761Y-39441428D01*
X102362666Y-39441428D01*
X102267428Y-39393809D01*
X101791238Y-39155714D02*
X101791238Y-39822380D01*
X101791238Y-39250952D02*
X101743619Y-39203333D01*
X101648380Y-39155714D01*
X101505523Y-39155714D01*
X101410285Y-39203333D01*
X101362666Y-39298571D01*
X101362666Y-39822380D01*
X100457904Y-39774761D02*
X100553142Y-39822380D01*
X100743619Y-39822380D01*
X100838857Y-39774761D01*
X100886476Y-39727142D01*
X100934095Y-39631904D01*
X100934095Y-39346190D01*
X100886476Y-39250952D01*
X100838857Y-39203333D01*
X100743619Y-39155714D01*
X100553142Y-39155714D01*
X100457904Y-39203333D01*
X100029333Y-39822380D02*
X100029333Y-39155714D01*
X100029333Y-38822380D02*
X100076952Y-38870000D01*
X100029333Y-38917619D01*
X99981714Y-38870000D01*
X100029333Y-38822380D01*
X100029333Y-38917619D01*
X99553142Y-39155714D02*
X99553142Y-39822380D01*
X99553142Y-39250952D02*
X99505523Y-39203333D01*
X99410285Y-39155714D01*
X99267428Y-39155714D01*
X99172190Y-39203333D01*
X99124571Y-39298571D01*
X99124571Y-39822380D01*
X98219809Y-39155714D02*
X98219809Y-39965238D01*
X98267428Y-40060476D01*
X98315047Y-40108095D01*
X98410285Y-40155714D01*
X98553142Y-40155714D01*
X98648380Y-40108095D01*
X98219809Y-39774761D02*
X98315047Y-39822380D01*
X98505523Y-39822380D01*
X98600761Y-39774761D01*
X98648380Y-39727142D01*
X98696000Y-39631904D01*
X98696000Y-39346190D01*
X98648380Y-39250952D01*
X98600761Y-39203333D01*
X98505523Y-39155714D01*
X98315047Y-39155714D01*
X98219809Y-39203333D01*
X97172190Y-39822380D02*
X97505523Y-39346190D01*
X97743619Y-39822380D02*
X97743619Y-38822380D01*
X97362666Y-38822380D01*
X97267428Y-38870000D01*
X97219809Y-38917619D01*
X97172190Y-39012857D01*
X97172190Y-39155714D01*
X97219809Y-39250952D01*
X97267428Y-39298571D01*
X97362666Y-39346190D01*
X97743619Y-39346190D01*
X96600761Y-39822380D02*
X96696000Y-39774761D01*
X96743619Y-39727142D01*
X96791238Y-39631904D01*
X96791238Y-39346190D01*
X96743619Y-39250952D01*
X96696000Y-39203333D01*
X96600761Y-39155714D01*
X96457904Y-39155714D01*
X96362666Y-39203333D01*
X96315047Y-39250952D01*
X96267428Y-39346190D01*
X96267428Y-39631904D01*
X96315047Y-39727142D01*
X96362666Y-39774761D01*
X96457904Y-39822380D01*
X96600761Y-39822380D01*
X95838857Y-39822380D02*
X95838857Y-38822380D01*
X95838857Y-39203333D02*
X95743619Y-39155714D01*
X95553142Y-39155714D01*
X95457904Y-39203333D01*
X95410285Y-39250952D01*
X95362666Y-39346190D01*
X95362666Y-39631904D01*
X95410285Y-39727142D01*
X95457904Y-39774761D01*
X95553142Y-39822380D01*
X95743619Y-39822380D01*
X95838857Y-39774761D01*
X94791238Y-39822380D02*
X94886476Y-39774761D01*
X94934095Y-39727142D01*
X94981714Y-39631904D01*
X94981714Y-39346190D01*
X94934095Y-39250952D01*
X94886476Y-39203333D01*
X94791238Y-39155714D01*
X94648380Y-39155714D01*
X94553142Y-39203333D01*
X94505523Y-39250952D01*
X94457904Y-39346190D01*
X94457904Y-39631904D01*
X94505523Y-39727142D01*
X94553142Y-39774761D01*
X94648380Y-39822380D01*
X94791238Y-39822380D01*
X94172190Y-39155714D02*
X93791238Y-39155714D01*
X94029333Y-38822380D02*
X94029333Y-39679523D01*
X93981714Y-39774761D01*
X93886476Y-39822380D01*
X93791238Y-39822380D01*
X92743619Y-38774761D02*
X93600761Y-40060476D01*
X112815047Y-41474761D02*
X112910285Y-41522380D01*
X113100761Y-41522380D01*
X113196000Y-41474761D01*
X113243619Y-41379523D01*
X113243619Y-40998571D01*
X113196000Y-40903333D01*
X113100761Y-40855714D01*
X112910285Y-40855714D01*
X112815047Y-40903333D01*
X112767428Y-40998571D01*
X112767428Y-41093809D01*
X113243619Y-41189047D01*
X112196000Y-41522380D02*
X112291238Y-41474761D01*
X112338857Y-41379523D01*
X112338857Y-40522380D01*
X111434095Y-41474761D02*
X111529333Y-41522380D01*
X111719809Y-41522380D01*
X111815047Y-41474761D01*
X111862666Y-41379523D01*
X111862666Y-40998571D01*
X111815047Y-40903333D01*
X111719809Y-40855714D01*
X111529333Y-40855714D01*
X111434095Y-40903333D01*
X111386476Y-40998571D01*
X111386476Y-41093809D01*
X111862666Y-41189047D01*
X111053142Y-41522380D02*
X110529333Y-40855714D01*
X111053142Y-40855714D02*
X110529333Y-41522380D01*
X110148380Y-40855714D02*
X110148380Y-41855714D01*
X110148380Y-40903333D02*
X110053142Y-40855714D01*
X109862666Y-40855714D01*
X109767428Y-40903333D01*
X109719809Y-40950952D01*
X109672190Y-41046190D01*
X109672190Y-41331904D01*
X109719809Y-41427142D01*
X109767428Y-41474761D01*
X109862666Y-41522380D01*
X110053142Y-41522380D01*
X110148380Y-41474761D01*
X108862666Y-41474761D02*
X108957904Y-41522380D01*
X109148380Y-41522380D01*
X109243619Y-41474761D01*
X109291238Y-41379523D01*
X109291238Y-40998571D01*
X109243619Y-40903333D01*
X109148380Y-40855714D01*
X108957904Y-40855714D01*
X108862666Y-40903333D01*
X108815047Y-40998571D01*
X108815047Y-41093809D01*
X109291238Y-41189047D01*
X108386476Y-41522380D02*
X108386476Y-40855714D01*
X108386476Y-41046190D02*
X108338857Y-40950952D01*
X108291238Y-40903333D01*
X108196000Y-40855714D01*
X108100761Y-40855714D01*
X107767428Y-41522380D02*
X107767428Y-40855714D01*
X107767428Y-40522380D02*
X107815047Y-40570000D01*
X107767428Y-40617619D01*
X107719809Y-40570000D01*
X107767428Y-40522380D01*
X107767428Y-40617619D01*
X107291238Y-41522380D02*
X107291238Y-40855714D01*
X107291238Y-40950952D02*
X107243619Y-40903333D01*
X107148380Y-40855714D01*
X107005523Y-40855714D01*
X106910285Y-40903333D01*
X106862666Y-40998571D01*
X106862666Y-41522380D01*
X106862666Y-40998571D02*
X106815047Y-40903333D01*
X106719809Y-40855714D01*
X106576952Y-40855714D01*
X106481714Y-40903333D01*
X106434095Y-40998571D01*
X106434095Y-41522380D01*
X105576952Y-41474761D02*
X105672190Y-41522380D01*
X105862666Y-41522380D01*
X105957904Y-41474761D01*
X106005523Y-41379523D01*
X106005523Y-40998571D01*
X105957904Y-40903333D01*
X105862666Y-40855714D01*
X105672190Y-40855714D01*
X105576952Y-40903333D01*
X105529333Y-40998571D01*
X105529333Y-41093809D01*
X106005523Y-41189047D01*
X105100761Y-40855714D02*
X105100761Y-41522380D01*
X105100761Y-40950952D02*
X105053142Y-40903333D01*
X104957904Y-40855714D01*
X104815047Y-40855714D01*
X104719809Y-40903333D01*
X104672190Y-40998571D01*
X104672190Y-41522380D01*
X104338857Y-40855714D02*
X103957904Y-40855714D01*
X104196000Y-40522380D02*
X104196000Y-41379523D01*
X104148380Y-41474761D01*
X104053142Y-41522380D01*
X103957904Y-41522380D01*
X103624571Y-41427142D02*
X103576952Y-41474761D01*
X103624571Y-41522380D01*
X103672190Y-41474761D01*
X103624571Y-41427142D01*
X103624571Y-41522380D01*
X103148380Y-40855714D02*
X103148380Y-41522380D01*
X103148380Y-40950952D02*
X103100761Y-40903333D01*
X103005523Y-40855714D01*
X102862666Y-40855714D01*
X102767428Y-40903333D01*
X102719809Y-40998571D01*
X102719809Y-41522380D01*
X102100761Y-41522380D02*
X102196000Y-41474761D01*
X102243619Y-41379523D01*
X102243619Y-40522380D01*
D11*
X118842857Y-34817857D02*
X118628571Y-34889285D01*
X118557142Y-34960714D01*
X118485714Y-35103571D01*
X118485714Y-35317857D01*
X118557142Y-35460714D01*
X118628571Y-35532142D01*
X118771428Y-35603571D01*
X119342857Y-35603571D01*
X119342857Y-34103571D01*
X118842857Y-34103571D01*
X118700000Y-34175000D01*
X118628571Y-34246428D01*
X118557142Y-34389285D01*
X118557142Y-34532142D01*
X118628571Y-34675000D01*
X118700000Y-34746428D01*
X118842857Y-34817857D01*
X119342857Y-34817857D01*
X117200000Y-35603571D02*
X117200000Y-34817857D01*
X117271428Y-34675000D01*
X117414285Y-34603571D01*
X117700000Y-34603571D01*
X117842857Y-34675000D01*
X117200000Y-35532142D02*
X117342857Y-35603571D01*
X117700000Y-35603571D01*
X117842857Y-35532142D01*
X117914285Y-35389285D01*
X117914285Y-35246428D01*
X117842857Y-35103571D01*
X117700000Y-35032142D01*
X117342857Y-35032142D01*
X117200000Y-34960714D01*
X116271428Y-35603571D02*
X116414285Y-35532142D01*
X116485714Y-35389285D01*
X116485714Y-34103571D01*
X115057142Y-35603571D02*
X115057142Y-34817857D01*
X115128571Y-34675000D01*
X115271428Y-34603571D01*
X115557142Y-34603571D01*
X115700000Y-34675000D01*
X115057142Y-35532142D02*
X115200000Y-35603571D01*
X115557142Y-35603571D01*
X115700000Y-35532142D01*
X115771428Y-35389285D01*
X115771428Y-35246428D01*
X115700000Y-35103571D01*
X115557142Y-35032142D01*
X115200000Y-35032142D01*
X115057142Y-34960714D01*
X114342857Y-34603571D02*
X114342857Y-35603571D01*
X114342857Y-34746428D02*
X114271428Y-34675000D01*
X114128571Y-34603571D01*
X113914285Y-34603571D01*
X113771428Y-34675000D01*
X113700000Y-34817857D01*
X113700000Y-35603571D01*
X112342857Y-35532142D02*
X112485714Y-35603571D01*
X112771428Y-35603571D01*
X112914285Y-35532142D01*
X112985714Y-35460714D01*
X113057142Y-35317857D01*
X113057142Y-34889285D01*
X112985714Y-34746428D01*
X112914285Y-34675000D01*
X112771428Y-34603571D01*
X112485714Y-34603571D01*
X112342857Y-34675000D01*
X111700000Y-35603571D02*
X111700000Y-34603571D01*
X111700000Y-34103571D02*
X111771428Y-34175000D01*
X111700000Y-34246428D01*
X111628571Y-34175000D01*
X111700000Y-34103571D01*
X111700000Y-34246428D01*
X110985714Y-34603571D02*
X110985714Y-35603571D01*
X110985714Y-34746428D02*
X110914285Y-34675000D01*
X110771428Y-34603571D01*
X110557142Y-34603571D01*
X110414285Y-34675000D01*
X110342857Y-34817857D01*
X110342857Y-35603571D01*
X108985714Y-34603571D02*
X108985714Y-35817857D01*
X109057142Y-35960714D01*
X109128571Y-36032142D01*
X109271428Y-36103571D01*
X109485714Y-36103571D01*
X109628571Y-36032142D01*
X108985714Y-35532142D02*
X109128571Y-35603571D01*
X109414285Y-35603571D01*
X109557142Y-35532142D01*
X109628571Y-35460714D01*
X109700000Y-35317857D01*
X109700000Y-34889285D01*
X109628571Y-34746428D01*
X109557142Y-34675000D01*
X109414285Y-34603571D01*
X109128571Y-34603571D01*
X108985714Y-34675000D01*
X107414285Y-35603571D02*
X107914285Y-34889285D01*
X108271428Y-35603571D02*
X108271428Y-34103571D01*
X107700000Y-34103571D01*
X107557142Y-34175000D01*
X107485714Y-34246428D01*
X107414285Y-34389285D01*
X107414285Y-34603571D01*
X107485714Y-34746428D01*
X107557142Y-34817857D01*
X107700000Y-34889285D01*
X108271428Y-34889285D01*
X106557142Y-35603571D02*
X106700000Y-35532142D01*
X106771428Y-35460714D01*
X106842857Y-35317857D01*
X106842857Y-34889285D01*
X106771428Y-34746428D01*
X106700000Y-34675000D01*
X106557142Y-34603571D01*
X106342857Y-34603571D01*
X106200000Y-34675000D01*
X106128571Y-34746428D01*
X106057142Y-34889285D01*
X106057142Y-35317857D01*
X106128571Y-35460714D01*
X106200000Y-35532142D01*
X106342857Y-35603571D01*
X106557142Y-35603571D01*
X105414285Y-35603571D02*
X105414285Y-34103571D01*
X105414285Y-34675000D02*
X105271428Y-34603571D01*
X104985714Y-34603571D01*
X104842857Y-34675000D01*
X104771428Y-34746428D01*
X104700000Y-34889285D01*
X104700000Y-35317857D01*
X104771428Y-35460714D01*
X104842857Y-35532142D01*
X104985714Y-35603571D01*
X105271428Y-35603571D01*
X105414285Y-35532142D01*
X103842857Y-35603571D02*
X103985714Y-35532142D01*
X104057142Y-35460714D01*
X104128571Y-35317857D01*
X104128571Y-34889285D01*
X104057142Y-34746428D01*
X103985714Y-34675000D01*
X103842857Y-34603571D01*
X103628571Y-34603571D01*
X103485714Y-34675000D01*
X103414285Y-34746428D01*
X103342857Y-34889285D01*
X103342857Y-35317857D01*
X103414285Y-35460714D01*
X103485714Y-35532142D01*
X103628571Y-35603571D01*
X103842857Y-35603571D01*
X102914285Y-34603571D02*
X102342857Y-34603571D01*
X102700000Y-34103571D02*
X102700000Y-35389285D01*
X102628571Y-35532142D01*
X102485714Y-35603571D01*
X102342857Y-35603571D01*
X100914285Y-34103571D02*
X100414285Y-35603571D01*
X99914285Y-34103571D01*
X98628571Y-35603571D02*
X99485714Y-35603571D01*
X99057142Y-35603571D02*
X99057142Y-34103571D01*
X99200000Y-34317857D01*
X99342857Y-34460714D01*
X99485714Y-34532142D01*
X97985714Y-35460714D02*
X97914285Y-35532142D01*
X97985714Y-35603571D01*
X98057142Y-35532142D01*
X97985714Y-35460714D01*
X97985714Y-35603571D01*
X97342857Y-34246428D02*
X97271428Y-34175000D01*
X97128571Y-34103571D01*
X96771428Y-34103571D01*
X96628571Y-34175000D01*
X96557142Y-34246428D01*
X96485714Y-34389285D01*
X96485714Y-34532142D01*
X96557142Y-34746428D01*
X97414285Y-35603571D01*
X96485714Y-35603571D01*
D12*
X103640000Y-71540000D02*
X104640000Y-71540000D01*
X104640000Y-73240000D02*
X103640000Y-73240000D01*
X112260000Y-68160000D02*
X111260000Y-68160000D01*
X111260000Y-66460000D02*
X112260000Y-66460000D01*
X104740000Y-66430000D02*
X103540000Y-66430000D01*
X103540000Y-68190000D02*
X104740000Y-68190000D01*
X103540000Y-70730000D02*
X104740000Y-70730000D01*
X104740000Y-68970000D02*
X103540000Y-68970000D01*
X105800000Y-43850000D02*
X105800000Y-45050000D01*
X107560000Y-45050000D02*
X107560000Y-43850000D01*
X108340000Y-43850000D02*
X108340000Y-45050000D01*
X110100000Y-45050000D02*
X110100000Y-43850000D01*
X111160000Y-73270000D02*
X112360000Y-73270000D01*
X112360000Y-71510000D02*
X111160000Y-71510000D01*
X112360000Y-68970000D02*
X111160000Y-68970000D01*
X111160000Y-70730000D02*
X112360000Y-70730000D01*
X112640000Y-45050000D02*
X112640000Y-43850000D01*
X110880000Y-43850000D02*
X110880000Y-45050000D01*
X104740000Y-56905000D02*
X103540000Y-56905000D01*
X103540000Y-58665000D02*
X104740000Y-58665000D01*
D13*
X107862666Y-72747142D02*
X107910285Y-72794761D01*
X108053142Y-72842380D01*
X108148380Y-72842380D01*
X108291238Y-72794761D01*
X108386476Y-72699523D01*
X108434095Y-72604285D01*
X108481714Y-72413809D01*
X108481714Y-72270952D01*
X108434095Y-72080476D01*
X108386476Y-71985238D01*
X108291238Y-71890000D01*
X108148380Y-71842380D01*
X108053142Y-71842380D01*
X107910285Y-71890000D01*
X107862666Y-71937619D01*
X106910285Y-72842380D02*
X107481714Y-72842380D01*
X107196000Y-72842380D02*
X107196000Y-71842380D01*
X107291238Y-71985238D01*
X107386476Y-72080476D01*
X107481714Y-72128095D01*
X115482666Y-67667142D02*
X115530285Y-67714761D01*
X115673142Y-67762380D01*
X115768380Y-67762380D01*
X115911238Y-67714761D01*
X116006476Y-67619523D01*
X116054095Y-67524285D01*
X116101714Y-67333809D01*
X116101714Y-67190952D01*
X116054095Y-67000476D01*
X116006476Y-66905238D01*
X115911238Y-66810000D01*
X115768380Y-66762380D01*
X115673142Y-66762380D01*
X115530285Y-66810000D01*
X115482666Y-66857619D01*
X115149333Y-66762380D02*
X114530285Y-66762380D01*
X114863619Y-67143333D01*
X114720761Y-67143333D01*
X114625523Y-67190952D01*
X114577904Y-67238571D01*
X114530285Y-67333809D01*
X114530285Y-67571904D01*
X114577904Y-67667142D01*
X114625523Y-67714761D01*
X114720761Y-67762380D01*
X115006476Y-67762380D01*
X115101714Y-67714761D01*
X115149333Y-67667142D01*
X107862666Y-67762380D02*
X108196000Y-67286190D01*
X108434095Y-67762380D02*
X108434095Y-66762380D01*
X108053142Y-66762380D01*
X107957904Y-66810000D01*
X107910285Y-66857619D01*
X107862666Y-66952857D01*
X107862666Y-67095714D01*
X107910285Y-67190952D01*
X107957904Y-67238571D01*
X108053142Y-67286190D01*
X108434095Y-67286190D01*
X106910285Y-67762380D02*
X107481714Y-67762380D01*
X107196000Y-67762380D02*
X107196000Y-66762380D01*
X107291238Y-66905238D01*
X107386476Y-67000476D01*
X107481714Y-67048095D01*
X107862666Y-70302380D02*
X108196000Y-69826190D01*
X108434095Y-70302380D02*
X108434095Y-69302380D01*
X108053142Y-69302380D01*
X107957904Y-69350000D01*
X107910285Y-69397619D01*
X107862666Y-69492857D01*
X107862666Y-69635714D01*
X107910285Y-69730952D01*
X107957904Y-69778571D01*
X108053142Y-69826190D01*
X108434095Y-69826190D01*
X107481714Y-69397619D02*
X107434095Y-69350000D01*
X107338857Y-69302380D01*
X107100761Y-69302380D01*
X107005523Y-69350000D01*
X106957904Y-69397619D01*
X106910285Y-69492857D01*
X106910285Y-69588095D01*
X106957904Y-69730952D01*
X107529333Y-70302380D01*
X106910285Y-70302380D01*
X106846666Y-48077380D02*
X107180000Y-47601190D01*
X107418095Y-48077380D02*
X107418095Y-47077380D01*
X107037142Y-47077380D01*
X106941904Y-47125000D01*
X106894285Y-47172619D01*
X106846666Y-47267857D01*
X106846666Y-47410714D01*
X106894285Y-47505952D01*
X106941904Y-47553571D01*
X107037142Y-47601190D01*
X107418095Y-47601190D01*
X106513333Y-47077380D02*
X105894285Y-47077380D01*
X106227619Y-47458333D01*
X106084761Y-47458333D01*
X105989523Y-47505952D01*
X105941904Y-47553571D01*
X105894285Y-47648809D01*
X105894285Y-47886904D01*
X105941904Y-47982142D01*
X105989523Y-48029761D01*
X106084761Y-48077380D01*
X106370476Y-48077380D01*
X106465714Y-48029761D01*
X106513333Y-47982142D01*
X109386666Y-48077380D02*
X109720000Y-47601190D01*
X109958095Y-48077380D02*
X109958095Y-47077380D01*
X109577142Y-47077380D01*
X109481904Y-47125000D01*
X109434285Y-47172619D01*
X109386666Y-47267857D01*
X109386666Y-47410714D01*
X109434285Y-47505952D01*
X109481904Y-47553571D01*
X109577142Y-47601190D01*
X109958095Y-47601190D01*
X108529523Y-47410714D02*
X108529523Y-48077380D01*
X108767619Y-47029761D02*
X109005714Y-47744047D01*
X108386666Y-47744047D01*
X115482666Y-72842380D02*
X115816000Y-72366190D01*
X116054095Y-72842380D02*
X116054095Y-71842380D01*
X115673142Y-71842380D01*
X115577904Y-71890000D01*
X115530285Y-71937619D01*
X115482666Y-72032857D01*
X115482666Y-72175714D01*
X115530285Y-72270952D01*
X115577904Y-72318571D01*
X115673142Y-72366190D01*
X116054095Y-72366190D01*
X114577904Y-71842380D02*
X115054095Y-71842380D01*
X115101714Y-72318571D01*
X115054095Y-72270952D01*
X114958857Y-72223333D01*
X114720761Y-72223333D01*
X114625523Y-72270952D01*
X114577904Y-72318571D01*
X114530285Y-72413809D01*
X114530285Y-72651904D01*
X114577904Y-72747142D01*
X114625523Y-72794761D01*
X114720761Y-72842380D01*
X114958857Y-72842380D01*
X115054095Y-72794761D01*
X115101714Y-72747142D01*
X115482666Y-70302380D02*
X115816000Y-69826190D01*
X116054095Y-70302380D02*
X116054095Y-69302380D01*
X115673142Y-69302380D01*
X115577904Y-69350000D01*
X115530285Y-69397619D01*
X115482666Y-69492857D01*
X115482666Y-69635714D01*
X115530285Y-69730952D01*
X115577904Y-69778571D01*
X115673142Y-69826190D01*
X116054095Y-69826190D01*
X114625523Y-69302380D02*
X114816000Y-69302380D01*
X114911238Y-69350000D01*
X114958857Y-69397619D01*
X115054095Y-69540476D01*
X115101714Y-69730952D01*
X115101714Y-70111904D01*
X115054095Y-70207142D01*
X115006476Y-70254761D01*
X114911238Y-70302380D01*
X114720761Y-70302380D01*
X114625523Y-70254761D01*
X114577904Y-70207142D01*
X114530285Y-70111904D01*
X114530285Y-69873809D01*
X114577904Y-69778571D01*
X114625523Y-69730952D01*
X114720761Y-69683333D01*
X114911238Y-69683333D01*
X115006476Y-69730952D01*
X115054095Y-69778571D01*
X115101714Y-69873809D01*
X111926666Y-48077380D02*
X112260000Y-47601190D01*
X112498095Y-48077380D02*
X112498095Y-47077380D01*
X112117142Y-47077380D01*
X112021904Y-47125000D01*
X111974285Y-47172619D01*
X111926666Y-47267857D01*
X111926666Y-47410714D01*
X111974285Y-47505952D01*
X112021904Y-47553571D01*
X112117142Y-47601190D01*
X112498095Y-47601190D01*
X111593333Y-47077380D02*
X110926666Y-47077380D01*
X111355238Y-48077380D01*
X108116666Y-58237380D02*
X108450000Y-57761190D01*
X108688095Y-58237380D02*
X108688095Y-57237380D01*
X108307142Y-57237380D01*
X108211904Y-57285000D01*
X108164285Y-57332619D01*
X108116666Y-57427857D01*
X108116666Y-57570714D01*
X108164285Y-57665952D01*
X108211904Y-57713571D01*
X108307142Y-57761190D01*
X108688095Y-57761190D01*
X107545238Y-57665952D02*
X107640476Y-57618333D01*
X107688095Y-57570714D01*
X107735714Y-57475476D01*
X107735714Y-57427857D01*
X107688095Y-57332619D01*
X107640476Y-57285000D01*
X107545238Y-57237380D01*
X107354761Y-57237380D01*
X107259523Y-57285000D01*
X107211904Y-57332619D01*
X107164285Y-57427857D01*
X107164285Y-57475476D01*
X107211904Y-57570714D01*
X107259523Y-57618333D01*
X107354761Y-57665952D01*
X107545238Y-57665952D01*
X107640476Y-57713571D01*
X107688095Y-57761190D01*
X107735714Y-57856428D01*
X107735714Y-58046904D01*
X107688095Y-58142142D01*
X107640476Y-58189761D01*
X107545238Y-58237380D01*
X107354761Y-58237380D01*
X107259523Y-58189761D01*
X107211904Y-58142142D01*
X107164285Y-58046904D01*
X107164285Y-57856428D01*
X107211904Y-57761190D01*
X107259523Y-57713571D01*
X107354761Y-57665952D01*
%LPC*%
D14*
X96520000Y-96520000D03*
X99060000Y-96520000D03*
X101600000Y-96520000D03*
X96520000Y-93980000D03*
X99060000Y-93980000D03*
X101600000Y-93980000D03*
X96520000Y-91440000D03*
X99060000Y-91440000D03*
G36*
G01*
X100700000Y-90340000D02*
X102500000Y-90340000D01*
G75*
G02*
X102700000Y-90540000I0J-200000D01*
G01*
X102700000Y-92340000D01*
G75*
G02*
X102500000Y-92540000I-200000J0D01*
G01*
X100700000Y-92540000D01*
G75*
G02*
X100500000Y-92340000I0J200000D01*
G01*
X100500000Y-90540000D01*
G75*
G02*
X100700000Y-90340000I200000J0D01*
G01*
G37*
X96520000Y-109220000D03*
X99060000Y-109220000D03*
X101600000Y-109220000D03*
X96520000Y-106680000D03*
X99060000Y-106680000D03*
X101600000Y-106680000D03*
X96520000Y-104140000D03*
X99060000Y-104140000D03*
X101600000Y-104140000D03*
X96520000Y-101600000D03*
X99060000Y-101600000D03*
G36*
G01*
X100700000Y-100500000D02*
X102500000Y-100500000D01*
G75*
G02*
X102700000Y-100700000I0J-200000D01*
G01*
X102700000Y-102500000D01*
G75*
G02*
X102500000Y-102700000I-200000J0D01*
G01*
X100700000Y-102700000D01*
G75*
G02*
X100500000Y-102500000I0J200000D01*
G01*
X100500000Y-100700000D01*
G75*
G02*
X100700000Y-100500000I200000J0D01*
G01*
G37*
X120725001Y-44450000D03*
X120725001Y-46990000D03*
X120725001Y-49530000D03*
X120725001Y-52070000D03*
X120725001Y-54610000D03*
X120725001Y-57150000D03*
X120725001Y-59690000D03*
X120725001Y-62230000D03*
X120725001Y-64770000D03*
X120725001Y-67310000D03*
X120725001Y-69850000D03*
X120725001Y-72390000D03*
X120725001Y-74930000D03*
X120725001Y-77470000D03*
X120725001Y-80010000D03*
X95325001Y-80010000D03*
X95325001Y-77470000D03*
X95325001Y-74930000D03*
X95325001Y-72390000D03*
X95325001Y-69850000D03*
X95325001Y-67310000D03*
X95325001Y-64770000D03*
X95325001Y-62230000D03*
X95325001Y-59690000D03*
X95325001Y-57150000D03*
X95325001Y-54610000D03*
X95325001Y-52070000D03*
X95325001Y-49530000D03*
X95325001Y-46990000D03*
G36*
G01*
X94225001Y-45350000D02*
X94225001Y-43550000D01*
G75*
G02*
X94425001Y-43350000I200000J0D01*
G01*
X96225001Y-43350000D01*
G75*
G02*
X96425001Y-43550000I0J-200000D01*
G01*
X96425001Y-45350000D01*
G75*
G02*
X96225001Y-45550000I-200000J0D01*
G01*
X94425001Y-45550000D01*
G75*
G02*
X94225001Y-45350000I0J200000D01*
G01*
G37*
X101250000Y-60550000D03*
X114650000Y-60550000D03*
X114650000Y-79150000D03*
X101250000Y-79150000D03*
X118110000Y-129540000D03*
X118110000Y-127000000D03*
X118110000Y-124460000D03*
X118110000Y-121920000D03*
X118110000Y-119380000D03*
X118110000Y-116840000D03*
X118110000Y-114300000D03*
X118110000Y-111760000D03*
X105410000Y-111760000D03*
X105410000Y-114300000D03*
X105410000Y-116840000D03*
X105410000Y-119380000D03*
X105410000Y-121920000D03*
X105410000Y-124460000D03*
X105410000Y-127000000D03*
X105410000Y-129540000D03*
D15*
X111440000Y-55020000D03*
D14*
X99060000Y-49530000D03*
X101600000Y-49530000D03*
X104140000Y-49530000D03*
X106680000Y-49530000D03*
X109220000Y-49530000D03*
X111760000Y-49530000D03*
X114300000Y-49530000D03*
G36*
G01*
X115940000Y-48430000D02*
X117740000Y-48430000D01*
G75*
G02*
X117940000Y-48630000I0J-200000D01*
G01*
X117940000Y-50430000D01*
G75*
G02*
X117740000Y-50630000I-200000J0D01*
G01*
X115940000Y-50630000D01*
G75*
G02*
X115740000Y-50430000I0J200000D01*
G01*
X115740000Y-48630000D01*
G75*
G02*
X115940000Y-48430000I200000J0D01*
G01*
G37*
G36*
G01*
X109490000Y-96050000D02*
X109490000Y-94450000D01*
G75*
G02*
X109690000Y-94250000I200000J0D01*
G01*
X111290000Y-94250000D01*
G75*
G02*
X111490000Y-94450000I0J-200000D01*
G01*
X111490000Y-96050000D01*
G75*
G02*
X111290000Y-96250000I-200000J0D01*
G01*
X109690000Y-96250000D01*
G75*
G02*
X109490000Y-96050000I0J200000D01*
G01*
G37*
D16*
X112990000Y-95250000D03*
G36*
G01*
X101940000Y-73015000D02*
X101940000Y-71765000D01*
G75*
G02*
X102140000Y-71565000I200000J0D01*
G01*
X103640000Y-71565000D01*
G75*
G02*
X103840000Y-71765000I0J-200000D01*
G01*
X103840000Y-73015000D01*
G75*
G02*
X103640000Y-73215000I-200000J0D01*
G01*
X102140000Y-73215000D01*
G75*
G02*
X101940000Y-73015000I0J200000D01*
G01*
G37*
G36*
G01*
X104440000Y-73015000D02*
X104440000Y-71765000D01*
G75*
G02*
X104640000Y-71565000I200000J0D01*
G01*
X106140000Y-71565000D01*
G75*
G02*
X106340000Y-71765000I0J-200000D01*
G01*
X106340000Y-73015000D01*
G75*
G02*
X106140000Y-73215000I-200000J0D01*
G01*
X104640000Y-73215000D01*
G75*
G02*
X104440000Y-73015000I0J200000D01*
G01*
G37*
G36*
G01*
X113960000Y-66685000D02*
X113960000Y-67935000D01*
G75*
G02*
X113760000Y-68135000I-200000J0D01*
G01*
X112260000Y-68135000D01*
G75*
G02*
X112060000Y-67935000I0J200000D01*
G01*
X112060000Y-66685000D01*
G75*
G02*
X112260000Y-66485000I200000J0D01*
G01*
X113760000Y-66485000D01*
G75*
G02*
X113960000Y-66685000I0J-200000D01*
G01*
G37*
G36*
G01*
X111460000Y-66685000D02*
X111460000Y-67935000D01*
G75*
G02*
X111260000Y-68135000I-200000J0D01*
G01*
X109760000Y-68135000D01*
G75*
G02*
X109560000Y-67935000I0J200000D01*
G01*
X109560000Y-66685000D01*
G75*
G02*
X109760000Y-66485000I200000J0D01*
G01*
X111260000Y-66485000D01*
G75*
G02*
X111460000Y-66685000I0J-200000D01*
G01*
G37*
G36*
G01*
X121700000Y-110910000D02*
X121700000Y-112610000D01*
G75*
G02*
X121500000Y-112810000I-200000J0D01*
G01*
X119800000Y-112810000D01*
G75*
G02*
X119600000Y-112610000I0J200000D01*
G01*
X119600000Y-110910000D01*
G75*
G02*
X119800000Y-110710000I200000J0D01*
G01*
X121500000Y-110710000D01*
G75*
G02*
X121700000Y-110910000I0J-200000D01*
G01*
G37*
D17*
X120650000Y-109220000D03*
G36*
G01*
X121700000Y-103290000D02*
X121700000Y-104990000D01*
G75*
G02*
X121500000Y-105190000I-200000J0D01*
G01*
X119800000Y-105190000D01*
G75*
G02*
X119600000Y-104990000I0J200000D01*
G01*
X119600000Y-103290000D01*
G75*
G02*
X119800000Y-103090000I200000J0D01*
G01*
X121500000Y-103090000D01*
G75*
G02*
X121700000Y-103290000I0J-200000D01*
G01*
G37*
X120650000Y-101600000D03*
X120650000Y-99060000D03*
X120650000Y-96520000D03*
G36*
G01*
X121700000Y-123610000D02*
X121700000Y-125310000D01*
G75*
G02*
X121500000Y-125510000I-200000J0D01*
G01*
X119800000Y-125510000D01*
G75*
G02*
X119600000Y-125310000I0J200000D01*
G01*
X119600000Y-123610000D01*
G75*
G02*
X119800000Y-123410000I200000J0D01*
G01*
X121500000Y-123410000D01*
G75*
G02*
X121700000Y-123610000I0J-200000D01*
G01*
G37*
X120650000Y-121920000D03*
X120650000Y-119380000D03*
X120650000Y-116840000D03*
G36*
G01*
X106440000Y-66660000D02*
X106440000Y-67960000D01*
G75*
G02*
X106240000Y-68160000I-200000J0D01*
G01*
X104740000Y-68160000D01*
G75*
G02*
X104540000Y-67960000I0J200000D01*
G01*
X104540000Y-66660000D01*
G75*
G02*
X104740000Y-66460000I200000J0D01*
G01*
X106240000Y-66460000D01*
G75*
G02*
X106440000Y-66660000I0J-200000D01*
G01*
G37*
G36*
G01*
X103740000Y-66660000D02*
X103740000Y-67960000D01*
G75*
G02*
X103540000Y-68160000I-200000J0D01*
G01*
X102040000Y-68160000D01*
G75*
G02*
X101840000Y-67960000I0J200000D01*
G01*
X101840000Y-66660000D01*
G75*
G02*
X102040000Y-66460000I200000J0D01*
G01*
X103540000Y-66460000D01*
G75*
G02*
X103740000Y-66660000I0J-200000D01*
G01*
G37*
G36*
G01*
X101840000Y-70500000D02*
X101840000Y-69200000D01*
G75*
G02*
X102040000Y-69000000I200000J0D01*
G01*
X103540000Y-69000000D01*
G75*
G02*
X103740000Y-69200000I0J-200000D01*
G01*
X103740000Y-70500000D01*
G75*
G02*
X103540000Y-70700000I-200000J0D01*
G01*
X102040000Y-70700000D01*
G75*
G02*
X101840000Y-70500000I0J200000D01*
G01*
G37*
G36*
G01*
X104540000Y-70500000D02*
X104540000Y-69200000D01*
G75*
G02*
X104740000Y-69000000I200000J0D01*
G01*
X106240000Y-69000000D01*
G75*
G02*
X106440000Y-69200000I0J-200000D01*
G01*
X106440000Y-70500000D01*
G75*
G02*
X106240000Y-70700000I-200000J0D01*
G01*
X104740000Y-70700000D01*
G75*
G02*
X104540000Y-70500000I0J200000D01*
G01*
G37*
G36*
G01*
X106030000Y-42150000D02*
X107330000Y-42150000D01*
G75*
G02*
X107530000Y-42350000I0J-200000D01*
G01*
X107530000Y-43850000D01*
G75*
G02*
X107330000Y-44050000I-200000J0D01*
G01*
X106030000Y-44050000D01*
G75*
G02*
X105830000Y-43850000I0J200000D01*
G01*
X105830000Y-42350000D01*
G75*
G02*
X106030000Y-42150000I200000J0D01*
G01*
G37*
G36*
G01*
X106030000Y-44850000D02*
X107330000Y-44850000D01*
G75*
G02*
X107530000Y-45050000I0J-200000D01*
G01*
X107530000Y-46550000D01*
G75*
G02*
X107330000Y-46750000I-200000J0D01*
G01*
X106030000Y-46750000D01*
G75*
G02*
X105830000Y-46550000I0J200000D01*
G01*
X105830000Y-45050000D01*
G75*
G02*
X106030000Y-44850000I200000J0D01*
G01*
G37*
G36*
G01*
X108570000Y-42150000D02*
X109870000Y-42150000D01*
G75*
G02*
X110070000Y-42350000I0J-200000D01*
G01*
X110070000Y-43850000D01*
G75*
G02*
X109870000Y-44050000I-200000J0D01*
G01*
X108570000Y-44050000D01*
G75*
G02*
X108370000Y-43850000I0J200000D01*
G01*
X108370000Y-42350000D01*
G75*
G02*
X108570000Y-42150000I200000J0D01*
G01*
G37*
G36*
G01*
X108570000Y-44850000D02*
X109870000Y-44850000D01*
G75*
G02*
X110070000Y-45050000I0J-200000D01*
G01*
X110070000Y-46550000D01*
G75*
G02*
X109870000Y-46750000I-200000J0D01*
G01*
X108570000Y-46750000D01*
G75*
G02*
X108370000Y-46550000I0J200000D01*
G01*
X108370000Y-45050000D01*
G75*
G02*
X108570000Y-44850000I200000J0D01*
G01*
G37*
G36*
G01*
X109460000Y-73040000D02*
X109460000Y-71740000D01*
G75*
G02*
X109660000Y-71540000I200000J0D01*
G01*
X111160000Y-71540000D01*
G75*
G02*
X111360000Y-71740000I0J-200000D01*
G01*
X111360000Y-73040000D01*
G75*
G02*
X111160000Y-73240000I-200000J0D01*
G01*
X109660000Y-73240000D01*
G75*
G02*
X109460000Y-73040000I0J200000D01*
G01*
G37*
G36*
G01*
X112160000Y-73040000D02*
X112160000Y-71740000D01*
G75*
G02*
X112360000Y-71540000I200000J0D01*
G01*
X113860000Y-71540000D01*
G75*
G02*
X114060000Y-71740000I0J-200000D01*
G01*
X114060000Y-73040000D01*
G75*
G02*
X113860000Y-73240000I-200000J0D01*
G01*
X112360000Y-73240000D01*
G75*
G02*
X112160000Y-73040000I0J200000D01*
G01*
G37*
G36*
G01*
X114060000Y-69200000D02*
X114060000Y-70500000D01*
G75*
G02*
X113860000Y-70700000I-200000J0D01*
G01*
X112360000Y-70700000D01*
G75*
G02*
X112160000Y-70500000I0J200000D01*
G01*
X112160000Y-69200000D01*
G75*
G02*
X112360000Y-69000000I200000J0D01*
G01*
X113860000Y-69000000D01*
G75*
G02*
X114060000Y-69200000I0J-200000D01*
G01*
G37*
G36*
G01*
X111360000Y-69200000D02*
X111360000Y-70500000D01*
G75*
G02*
X111160000Y-70700000I-200000J0D01*
G01*
X109660000Y-70700000D01*
G75*
G02*
X109460000Y-70500000I0J200000D01*
G01*
X109460000Y-69200000D01*
G75*
G02*
X109660000Y-69000000I200000J0D01*
G01*
X111160000Y-69000000D01*
G75*
G02*
X111360000Y-69200000I0J-200000D01*
G01*
G37*
D18*
X97790000Y-115570000D03*
X97790000Y-120650000D03*
D16*
X112990000Y-115570000D03*
G36*
G01*
X109490000Y-116370000D02*
X109490000Y-114770000D01*
G75*
G02*
X109690000Y-114570000I200000J0D01*
G01*
X111290000Y-114570000D01*
G75*
G02*
X111490000Y-114770000I0J-200000D01*
G01*
X111490000Y-116370000D01*
G75*
G02*
X111290000Y-116570000I-200000J0D01*
G01*
X109690000Y-116570000D01*
G75*
G02*
X109490000Y-116370000I0J200000D01*
G01*
G37*
D15*
X111440000Y-126020000D03*
D16*
X100330000Y-125730000D03*
X95250000Y-125730000D03*
D14*
X105410000Y-109220000D03*
X105410000Y-106680000D03*
X105410000Y-104140000D03*
X105410000Y-101600000D03*
X105410000Y-99060000D03*
X105410000Y-96520000D03*
X105410000Y-93980000D03*
X105410000Y-91440000D03*
X118110000Y-91440000D03*
X118110000Y-93980000D03*
X118110000Y-96520000D03*
X118110000Y-99060000D03*
X118110000Y-101600000D03*
X118110000Y-104140000D03*
X118110000Y-106680000D03*
X118110000Y-109220000D03*
G36*
G01*
X111110000Y-44850000D02*
X112410000Y-44850000D01*
G75*
G02*
X112610000Y-45050000I0J-200000D01*
G01*
X112610000Y-46550000D01*
G75*
G02*
X112410000Y-46750000I-200000J0D01*
G01*
X111110000Y-46750000D01*
G75*
G02*
X110910000Y-46550000I0J200000D01*
G01*
X110910000Y-45050000D01*
G75*
G02*
X111110000Y-44850000I200000J0D01*
G01*
G37*
G36*
G01*
X111110000Y-42150000D02*
X112410000Y-42150000D01*
G75*
G02*
X112610000Y-42350000I0J-200000D01*
G01*
X112610000Y-43850000D01*
G75*
G02*
X112410000Y-44050000I-200000J0D01*
G01*
X111110000Y-44050000D01*
G75*
G02*
X110910000Y-43850000I0J200000D01*
G01*
X110910000Y-42350000D01*
G75*
G02*
X111110000Y-42150000I200000J0D01*
G01*
G37*
D16*
X106640000Y-85725000D03*
G36*
G01*
X103140000Y-86525000D02*
X103140000Y-84925000D01*
G75*
G02*
X103340000Y-84725000I200000J0D01*
G01*
X104940000Y-84725000D01*
G75*
G02*
X105140000Y-84925000I0J-200000D01*
G01*
X105140000Y-86525000D01*
G75*
G02*
X104940000Y-86725000I-200000J0D01*
G01*
X103340000Y-86725000D01*
G75*
G02*
X103140000Y-86525000I0J200000D01*
G01*
G37*
G36*
G01*
X104540000Y-58435000D02*
X104540000Y-57135000D01*
G75*
G02*
X104740000Y-56935000I200000J0D01*
G01*
X106240000Y-56935000D01*
G75*
G02*
X106440000Y-57135000I0J-200000D01*
G01*
X106440000Y-58435000D01*
G75*
G02*
X106240000Y-58635000I-200000J0D01*
G01*
X104740000Y-58635000D01*
G75*
G02*
X104540000Y-58435000I0J200000D01*
G01*
G37*
G36*
G01*
X101840000Y-58435000D02*
X101840000Y-57135000D01*
G75*
G02*
X102040000Y-56935000I200000J0D01*
G01*
X103540000Y-56935000D01*
G75*
G02*
X103740000Y-57135000I0J-200000D01*
G01*
X103740000Y-58435000D01*
G75*
G02*
X103540000Y-58635000I-200000J0D01*
G01*
X102040000Y-58635000D01*
G75*
G02*
X101840000Y-58435000I0J200000D01*
G01*
G37*
D14*
X100330000Y-128905000D03*
X95250000Y-128905000D03*
M02*
