G04 #@! TF.GenerationSoftware,KiCad,Pcbnew,(5.1.9)-1*
G04 #@! TF.CreationDate,2021-04-15T13:52:47+07:00*
G04 #@! TF.ProjectId,pendulumRobotModule,70656e64-756c-4756-9d52-6f626f744d6f,rev?*
G04 #@! TF.SameCoordinates,Original*
G04 #@! TF.FileFunction,Legend,Top*
G04 #@! TF.FilePolarity,Positive*
%FSLAX46Y46*%
G04 Gerber Fmt 4.6, Leading zero omitted, Abs format (unit mm)*
G04 Created by KiCad (PCBNEW (5.1.9)-1) date 2021-04-15 13:52:47*
%MOMM*%
%LPD*%
G01*
G04 APERTURE LIST*
%ADD10C,0.200000*%
%ADD11C,0.300000*%
%ADD12C,0.150000*%
%ADD13C,0.120000*%
%ADD14C,2.200000*%
%ADD15C,3.600000*%
%ADD16C,2.000000*%
%ADD17O,2.100000X2.100000*%
%ADD18C,4.100000*%
G04 APERTURE END LIST*
D10*
X94488095Y-130952857D02*
X96011904Y-130952857D01*
X99568095Y-130952857D02*
X101091904Y-130952857D01*
X100330000Y-131714761D02*
X100330000Y-130190952D01*
X106950000Y-60937857D02*
X107178571Y-60937857D01*
X107292857Y-60995000D01*
X107407142Y-61109285D01*
X107464285Y-61337857D01*
X107464285Y-61737857D01*
X107407142Y-61966428D01*
X107292857Y-62080714D01*
X107178571Y-62137857D01*
X106950000Y-62137857D01*
X106835714Y-62080714D01*
X106721428Y-61966428D01*
X106664285Y-61737857D01*
X106664285Y-61337857D01*
X106721428Y-61109285D01*
X106835714Y-60995000D01*
X106950000Y-60937857D01*
X108492857Y-61337857D02*
X108492857Y-62137857D01*
X107978571Y-61337857D02*
X107978571Y-61966428D01*
X108035714Y-62080714D01*
X108150000Y-62137857D01*
X108321428Y-62137857D01*
X108435714Y-62080714D01*
X108492857Y-62023571D01*
X108892857Y-61337857D02*
X109350000Y-61337857D01*
X109064285Y-60937857D02*
X109064285Y-61966428D01*
X109121428Y-62080714D01*
X109235714Y-62137857D01*
X109350000Y-62137857D01*
X107407142Y-78012857D02*
X107407142Y-76812857D01*
X107978571Y-77212857D02*
X107978571Y-78012857D01*
X107978571Y-77327142D02*
X108035714Y-77270000D01*
X108150000Y-77212857D01*
X108321428Y-77212857D01*
X108435714Y-77270000D01*
X108492857Y-77384285D01*
X108492857Y-78012857D01*
X100330000Y-107950000D02*
X102870000Y-107950000D01*
X102870000Y-95250000D02*
X95250000Y-95250000D01*
X95250000Y-92710000D02*
X100330000Y-92710000D01*
X100330000Y-102870000D02*
X100330000Y-110490000D01*
X95250000Y-102870000D02*
X100330000Y-102870000D01*
X92199333Y-106846666D02*
X92675523Y-106846666D01*
X92104095Y-107132380D02*
X92437428Y-106132380D01*
X92770761Y-107132380D01*
X93104095Y-106132380D02*
X93104095Y-106941904D01*
X93151714Y-107037142D01*
X93199333Y-107084761D01*
X93294571Y-107132380D01*
X93485047Y-107132380D01*
X93580285Y-107084761D01*
X93627904Y-107037142D01*
X93675523Y-106941904D01*
X93675523Y-106132380D01*
X94056476Y-106132380D02*
X94723142Y-107132380D01*
X94723142Y-106132380D02*
X94056476Y-107132380D01*
X92675523Y-102052380D02*
X92675523Y-101052380D01*
X93104095Y-101147619D02*
X93151714Y-101100000D01*
X93246952Y-101052380D01*
X93485047Y-101052380D01*
X93580285Y-101100000D01*
X93627904Y-101147619D01*
X93675523Y-101242857D01*
X93675523Y-101338095D01*
X93627904Y-101480952D01*
X93056476Y-102052380D01*
X93675523Y-102052380D01*
X94675523Y-101957142D02*
X94627904Y-102004761D01*
X94485047Y-102052380D01*
X94389809Y-102052380D01*
X94246952Y-102004761D01*
X94151714Y-101909523D01*
X94104095Y-101814285D01*
X94056476Y-101623809D01*
X94056476Y-101480952D01*
X94104095Y-101290476D01*
X94151714Y-101195238D01*
X94246952Y-101100000D01*
X94389809Y-101052380D01*
X94485047Y-101052380D01*
X94627904Y-101100000D01*
X94675523Y-101147619D01*
X92866000Y-96972380D02*
X92389809Y-96972380D01*
X92389809Y-95972380D01*
X93199333Y-96448571D02*
X93532666Y-96448571D01*
X93675523Y-96972380D02*
X93199333Y-96972380D01*
X93199333Y-95972380D01*
X93675523Y-95972380D01*
X94104095Y-96972380D02*
X94104095Y-95972380D01*
X94342190Y-95972380D01*
X94485047Y-96020000D01*
X94580285Y-96115238D01*
X94627904Y-96210476D01*
X94675523Y-96400952D01*
X94675523Y-96543809D01*
X94627904Y-96734285D01*
X94580285Y-96829523D01*
X94485047Y-96924761D01*
X94342190Y-96972380D01*
X94104095Y-96972380D01*
X92199333Y-94384761D02*
X92342190Y-94432380D01*
X92580285Y-94432380D01*
X92675523Y-94384761D01*
X92723142Y-94337142D01*
X92770761Y-94241904D01*
X92770761Y-94146666D01*
X92723142Y-94051428D01*
X92675523Y-94003809D01*
X92580285Y-93956190D01*
X92389809Y-93908571D01*
X92294571Y-93860952D01*
X92246952Y-93813333D01*
X92199333Y-93718095D01*
X92199333Y-93622857D01*
X92246952Y-93527619D01*
X92294571Y-93480000D01*
X92389809Y-93432380D01*
X92627904Y-93432380D01*
X92770761Y-93480000D01*
X93199333Y-93908571D02*
X93532666Y-93908571D01*
X93675523Y-94432380D02*
X93199333Y-94432380D01*
X93199333Y-93432380D01*
X93675523Y-93432380D01*
X94675523Y-94432380D02*
X94342190Y-93956190D01*
X94104095Y-94432380D02*
X94104095Y-93432380D01*
X94485047Y-93432380D01*
X94580285Y-93480000D01*
X94627904Y-93527619D01*
X94675523Y-93622857D01*
X94675523Y-93765714D01*
X94627904Y-93860952D01*
X94580285Y-93908571D01*
X94485047Y-93956190D01*
X94104095Y-93956190D01*
X93723142Y-91892380D02*
X93389809Y-91416190D01*
X93151714Y-91892380D02*
X93151714Y-90892380D01*
X93532666Y-90892380D01*
X93627904Y-90940000D01*
X93675523Y-90987619D01*
X93723142Y-91082857D01*
X93723142Y-91225714D01*
X93675523Y-91320952D01*
X93627904Y-91368571D01*
X93532666Y-91416190D01*
X93151714Y-91416190D01*
X94056476Y-90892380D02*
X94723142Y-91892380D01*
X94723142Y-90892380D02*
X94056476Y-91892380D01*
D11*
X92837142Y-115784285D02*
X95122857Y-115784285D01*
X92837142Y-120864285D02*
X95122857Y-120864285D01*
X93980000Y-122007142D02*
X93980000Y-119721428D01*
X96091428Y-89507142D02*
X96305714Y-89578571D01*
X96662857Y-89578571D01*
X96805714Y-89507142D01*
X96877142Y-89435714D01*
X96948571Y-89292857D01*
X96948571Y-89150000D01*
X96877142Y-89007142D01*
X96805714Y-88935714D01*
X96662857Y-88864285D01*
X96377142Y-88792857D01*
X96234285Y-88721428D01*
X96162857Y-88650000D01*
X96091428Y-88507142D01*
X96091428Y-88364285D01*
X96162857Y-88221428D01*
X96234285Y-88150000D01*
X96377142Y-88078571D01*
X96734285Y-88078571D01*
X96948571Y-88150000D01*
X98488571Y-89007142D02*
X99631428Y-89007142D01*
X99060000Y-89578571D02*
X99060000Y-88435714D01*
X101028571Y-89007142D02*
X102171428Y-89007142D01*
D12*
X102870000Y-90170000D02*
X102870000Y-97790000D01*
X102870000Y-97790000D02*
X95250000Y-97790000D01*
X95250000Y-97790000D02*
X95250000Y-90170000D01*
X95250000Y-90170000D02*
X102870000Y-90170000D01*
X100330000Y-90170000D02*
X100330000Y-92710000D01*
X100330000Y-92710000D02*
X102870000Y-92710000D01*
X102870000Y-110490000D02*
X102870000Y-100330000D01*
X102870000Y-100330000D02*
X95250000Y-100330000D01*
X95250000Y-100330000D02*
X95250000Y-110490000D01*
X95250000Y-110490000D02*
X102870000Y-110490000D01*
X100330000Y-100330000D02*
X100330000Y-102870000D01*
X100330000Y-102870000D02*
X102870000Y-102870000D01*
X121995001Y-40640000D02*
X121995001Y-83820000D01*
X94055001Y-83820000D02*
X94055001Y-40640000D01*
X94055001Y-34290000D02*
X94055001Y-40640000D01*
X94055001Y-34290000D02*
X121995001Y-34290000D01*
X121995001Y-34290000D02*
X121995001Y-40640000D01*
X121995001Y-83820000D02*
X121995001Y-85090000D01*
X121995001Y-85090000D02*
X94055001Y-85090000D01*
X94055001Y-85090000D02*
X94055001Y-83820000D01*
X94055001Y-43180000D02*
X96595001Y-43180000D01*
X96595001Y-43180000D02*
X96595001Y-81280000D01*
X96595001Y-81280000D02*
X94055001Y-81280000D01*
X121995001Y-81280000D02*
X119455001Y-81280000D01*
X119455001Y-81280000D02*
X119455001Y-43180000D01*
X119455001Y-43180000D02*
X121995001Y-43180000D01*
X96595001Y-45720000D02*
X94055001Y-45720000D01*
X99450000Y-80850000D02*
X99450000Y-58850000D01*
X99450000Y-58850000D02*
X116450000Y-58850000D01*
X116450000Y-58850000D02*
X116450000Y-80350000D01*
X116450000Y-80350000D02*
X116450000Y-80850000D01*
X116450000Y-80850000D02*
X99450000Y-80850000D01*
X102870000Y-77470000D02*
X102870000Y-80850000D01*
X102870000Y-77470000D02*
X99450000Y-77470000D01*
X116760000Y-128270000D02*
X119260000Y-128270000D01*
X106760000Y-110650000D02*
X106760000Y-130650000D01*
X116760000Y-110650000D02*
X106760000Y-110650000D01*
X116760000Y-130650000D02*
X116760000Y-110650000D01*
X119260000Y-110650000D02*
X119260000Y-130650000D01*
X104260000Y-110650000D02*
X119260000Y-110650000D01*
X104260000Y-130650000D02*
X104260000Y-110650000D01*
X119260000Y-130650000D02*
X104260000Y-130650000D01*
X118450000Y-35180000D02*
X118450000Y-51180000D01*
X118450000Y-51180000D02*
X97450000Y-51180000D01*
X97450000Y-51180000D02*
X97450000Y-35180000D01*
X97450000Y-35180000D02*
X118450000Y-35180000D01*
X118450000Y-48260000D02*
X97450000Y-48260000D01*
X117640000Y-36830000D02*
G75*
G03*
X117640000Y-36830000I-800000J0D01*
G01*
X115570000Y-48260000D02*
X115570000Y-51180000D01*
D13*
X108890000Y-94600000D02*
X108890000Y-95900000D01*
X108290000Y-95250000D02*
X109490000Y-95250000D01*
X115821000Y-95004000D02*
X115821000Y-95496000D01*
X115781000Y-94652000D02*
X115781000Y-95848000D01*
X115741000Y-94436000D02*
X115741000Y-96064000D01*
X115701000Y-94267000D02*
X115701000Y-96233000D01*
X115661000Y-94123000D02*
X115661000Y-96377000D01*
X115621000Y-93996000D02*
X115621000Y-96504000D01*
X115581000Y-93881000D02*
X115581000Y-96619000D01*
X115541000Y-93777000D02*
X115541000Y-96723000D01*
X115501000Y-93680000D02*
X115501000Y-96820000D01*
X115461000Y-93590000D02*
X115461000Y-96910000D01*
X115421000Y-93505000D02*
X115421000Y-96995000D01*
X115381000Y-93424000D02*
X115381000Y-97076000D01*
X115341000Y-93348000D02*
X115341000Y-97152000D01*
X115301000Y-93276000D02*
X115301000Y-97224000D01*
X115261000Y-93207000D02*
X115261000Y-97293000D01*
X115221000Y-93141000D02*
X115221000Y-97359000D01*
X115181000Y-93077000D02*
X115181000Y-97423000D01*
X115141000Y-93016000D02*
X115141000Y-97484000D01*
X115101000Y-92957000D02*
X115101000Y-97543000D01*
X115061000Y-92901000D02*
X115061000Y-97599000D01*
X115021000Y-92846000D02*
X115021000Y-97654000D01*
X114981000Y-92793000D02*
X114981000Y-97707000D01*
X114941000Y-92742000D02*
X114941000Y-97758000D01*
X114901000Y-92693000D02*
X114901000Y-97807000D01*
X114861000Y-92645000D02*
X114861000Y-97855000D01*
X114821000Y-92598000D02*
X114821000Y-97902000D01*
X114781000Y-92553000D02*
X114781000Y-97947000D01*
X114741000Y-92510000D02*
X114741000Y-97990000D01*
X114701000Y-92467000D02*
X114701000Y-98033000D01*
X114661000Y-92426000D02*
X114661000Y-98074000D01*
X114621000Y-92385000D02*
X114621000Y-98115000D01*
X114581000Y-92346000D02*
X114581000Y-98154000D01*
X114541000Y-92308000D02*
X114541000Y-98192000D01*
X114501000Y-92271000D02*
X114501000Y-98229000D01*
X114461000Y-92235000D02*
X114461000Y-98265000D01*
X114421000Y-92200000D02*
X114421000Y-98300000D01*
X114381000Y-92166000D02*
X114381000Y-98334000D01*
X114341000Y-92132000D02*
X114341000Y-98368000D01*
X114301000Y-92100000D02*
X114301000Y-98400000D01*
X114261000Y-92068000D02*
X114261000Y-98432000D01*
X114221000Y-92037000D02*
X114221000Y-98463000D01*
X114181000Y-92007000D02*
X114181000Y-98493000D01*
X114141000Y-91978000D02*
X114141000Y-98522000D01*
X114101000Y-91949000D02*
X114101000Y-98551000D01*
X114061000Y-91921000D02*
X114061000Y-98579000D01*
X114021000Y-91894000D02*
X114021000Y-98606000D01*
X113981000Y-91867000D02*
X113981000Y-98633000D01*
X113941000Y-96230000D02*
X113941000Y-98658000D01*
X113941000Y-91842000D02*
X113941000Y-94270000D01*
X113901000Y-96230000D02*
X113901000Y-98684000D01*
X113901000Y-91816000D02*
X113901000Y-94270000D01*
X113861000Y-96230000D02*
X113861000Y-98708000D01*
X113861000Y-91792000D02*
X113861000Y-94270000D01*
X113821000Y-96230000D02*
X113821000Y-98732000D01*
X113821000Y-91768000D02*
X113821000Y-94270000D01*
X113781000Y-96230000D02*
X113781000Y-98755000D01*
X113781000Y-91745000D02*
X113781000Y-94270000D01*
X113741000Y-96230000D02*
X113741000Y-98778000D01*
X113741000Y-91722000D02*
X113741000Y-94270000D01*
X113701000Y-96230000D02*
X113701000Y-98800000D01*
X113701000Y-91700000D02*
X113701000Y-94270000D01*
X113661000Y-96230000D02*
X113661000Y-98822000D01*
X113661000Y-91678000D02*
X113661000Y-94270000D01*
X113621000Y-96230000D02*
X113621000Y-98843000D01*
X113621000Y-91657000D02*
X113621000Y-94270000D01*
X113581000Y-96230000D02*
X113581000Y-98863000D01*
X113581000Y-91637000D02*
X113581000Y-94270000D01*
X113541000Y-96230000D02*
X113541000Y-98883000D01*
X113541000Y-91617000D02*
X113541000Y-94270000D01*
X113501000Y-96230000D02*
X113501000Y-98902000D01*
X113501000Y-91598000D02*
X113501000Y-94270000D01*
X113461000Y-96230000D02*
X113461000Y-98921000D01*
X113461000Y-91579000D02*
X113461000Y-94270000D01*
X113421000Y-96230000D02*
X113421000Y-98940000D01*
X113421000Y-91560000D02*
X113421000Y-94270000D01*
X113381000Y-96230000D02*
X113381000Y-98957000D01*
X113381000Y-91543000D02*
X113381000Y-94270000D01*
X113341000Y-96230000D02*
X113341000Y-98975000D01*
X113341000Y-91525000D02*
X113341000Y-94270000D01*
X113301000Y-96230000D02*
X113301000Y-98991000D01*
X113301000Y-91509000D02*
X113301000Y-94270000D01*
X113261000Y-96230000D02*
X113261000Y-99008000D01*
X113261000Y-91492000D02*
X113261000Y-94270000D01*
X113221000Y-96230000D02*
X113221000Y-99023000D01*
X113221000Y-91477000D02*
X113221000Y-94270000D01*
X113181000Y-96230000D02*
X113181000Y-99039000D01*
X113181000Y-91461000D02*
X113181000Y-94270000D01*
X113141000Y-96230000D02*
X113141000Y-99053000D01*
X113141000Y-91447000D02*
X113141000Y-94270000D01*
X113101000Y-96230000D02*
X113101000Y-99068000D01*
X113101000Y-91432000D02*
X113101000Y-94270000D01*
X113061000Y-96230000D02*
X113061000Y-99082000D01*
X113061000Y-91418000D02*
X113061000Y-94270000D01*
X113021000Y-96230000D02*
X113021000Y-99095000D01*
X113021000Y-91405000D02*
X113021000Y-94270000D01*
X112981000Y-96230000D02*
X112981000Y-99108000D01*
X112981000Y-91392000D02*
X112981000Y-94270000D01*
X112941000Y-96230000D02*
X112941000Y-99120000D01*
X112941000Y-91380000D02*
X112941000Y-94270000D01*
X112901000Y-96230000D02*
X112901000Y-99133000D01*
X112901000Y-91367000D02*
X112901000Y-94270000D01*
X112861000Y-96230000D02*
X112861000Y-99144000D01*
X112861000Y-91356000D02*
X112861000Y-94270000D01*
X112821000Y-96230000D02*
X112821000Y-99155000D01*
X112821000Y-91345000D02*
X112821000Y-94270000D01*
X112781000Y-96230000D02*
X112781000Y-99166000D01*
X112781000Y-91334000D02*
X112781000Y-94270000D01*
X112741000Y-96230000D02*
X112741000Y-99176000D01*
X112741000Y-91324000D02*
X112741000Y-94270000D01*
X112701000Y-96230000D02*
X112701000Y-99186000D01*
X112701000Y-91314000D02*
X112701000Y-94270000D01*
X112661000Y-96230000D02*
X112661000Y-99196000D01*
X112661000Y-91304000D02*
X112661000Y-94270000D01*
X112621000Y-96230000D02*
X112621000Y-99205000D01*
X112621000Y-91295000D02*
X112621000Y-94270000D01*
X112581000Y-96230000D02*
X112581000Y-99213000D01*
X112581000Y-91287000D02*
X112581000Y-94270000D01*
X112541000Y-96230000D02*
X112541000Y-99221000D01*
X112541000Y-91279000D02*
X112541000Y-94270000D01*
X112501000Y-96230000D02*
X112501000Y-99229000D01*
X112501000Y-91271000D02*
X112501000Y-94270000D01*
X112461000Y-96230000D02*
X112461000Y-99237000D01*
X112461000Y-91263000D02*
X112461000Y-94270000D01*
X112420000Y-96230000D02*
X112420000Y-99244000D01*
X112420000Y-91256000D02*
X112420000Y-94270000D01*
X112380000Y-96230000D02*
X112380000Y-99250000D01*
X112380000Y-91250000D02*
X112380000Y-94270000D01*
X112340000Y-96230000D02*
X112340000Y-99256000D01*
X112340000Y-91244000D02*
X112340000Y-94270000D01*
X112300000Y-96230000D02*
X112300000Y-99262000D01*
X112300000Y-91238000D02*
X112300000Y-94270000D01*
X112260000Y-96230000D02*
X112260000Y-99267000D01*
X112260000Y-91233000D02*
X112260000Y-94270000D01*
X112220000Y-96230000D02*
X112220000Y-99272000D01*
X112220000Y-91228000D02*
X112220000Y-94270000D01*
X112180000Y-96230000D02*
X112180000Y-99277000D01*
X112180000Y-91223000D02*
X112180000Y-94270000D01*
X112140000Y-96230000D02*
X112140000Y-99281000D01*
X112140000Y-91219000D02*
X112140000Y-94270000D01*
X112100000Y-96230000D02*
X112100000Y-99285000D01*
X112100000Y-91215000D02*
X112100000Y-94270000D01*
X112060000Y-96230000D02*
X112060000Y-99288000D01*
X112060000Y-91212000D02*
X112060000Y-94270000D01*
X112020000Y-96230000D02*
X112020000Y-99291000D01*
X112020000Y-91209000D02*
X112020000Y-94270000D01*
X111980000Y-91207000D02*
X111980000Y-99293000D01*
X111940000Y-91204000D02*
X111940000Y-99296000D01*
X111900000Y-91203000D02*
X111900000Y-99297000D01*
X111860000Y-91201000D02*
X111860000Y-99299000D01*
X111820000Y-91200000D02*
X111820000Y-99300000D01*
X111780000Y-91200000D02*
X111780000Y-99300000D01*
X111740000Y-91200000D02*
X111740000Y-99300000D01*
X115830000Y-95250000D02*
G75*
G03*
X115830000Y-95250000I-4090000J0D01*
G01*
X121980000Y-113090000D02*
X120650000Y-113090000D01*
X121980000Y-111760000D02*
X121980000Y-113090000D01*
X119320000Y-110490000D02*
X121980000Y-110490000D01*
X119320000Y-107890000D02*
X119320000Y-110490000D01*
X121980000Y-107890000D02*
X119320000Y-107890000D01*
X121980000Y-110490000D02*
X121980000Y-107890000D01*
X121980000Y-105470000D02*
X120650000Y-105470000D01*
X121980000Y-104140000D02*
X121980000Y-105470000D01*
X119320000Y-102870000D02*
X121980000Y-102870000D01*
X119320000Y-95190000D02*
X119320000Y-102870000D01*
X121980000Y-95190000D02*
X119320000Y-95190000D01*
X121980000Y-102870000D02*
X121980000Y-95190000D01*
X121980000Y-125790000D02*
X120650000Y-125790000D01*
X121980000Y-124460000D02*
X121980000Y-125790000D01*
X119320000Y-123190000D02*
X121980000Y-123190000D01*
X119320000Y-115510000D02*
X119320000Y-123190000D01*
X121980000Y-115510000D02*
X119320000Y-115510000D01*
X121980000Y-123190000D02*
X121980000Y-115510000D01*
X94615000Y-40895000D02*
X94615000Y-39115000D01*
X97155000Y-39115000D02*
X97155000Y-40895000D01*
X97155000Y-39115000D02*
X94615000Y-39115000D01*
X94615000Y-40895000D02*
X97155000Y-40895000D01*
X115830000Y-115570000D02*
G75*
G03*
X115830000Y-115570000I-4090000J0D01*
G01*
X111740000Y-111520000D02*
X111740000Y-119620000D01*
X111780000Y-111520000D02*
X111780000Y-119620000D01*
X111820000Y-111520000D02*
X111820000Y-119620000D01*
X111860000Y-111521000D02*
X111860000Y-119619000D01*
X111900000Y-111523000D02*
X111900000Y-119617000D01*
X111940000Y-111524000D02*
X111940000Y-119616000D01*
X111980000Y-111527000D02*
X111980000Y-119613000D01*
X112020000Y-111529000D02*
X112020000Y-114590000D01*
X112020000Y-116550000D02*
X112020000Y-119611000D01*
X112060000Y-111532000D02*
X112060000Y-114590000D01*
X112060000Y-116550000D02*
X112060000Y-119608000D01*
X112100000Y-111535000D02*
X112100000Y-114590000D01*
X112100000Y-116550000D02*
X112100000Y-119605000D01*
X112140000Y-111539000D02*
X112140000Y-114590000D01*
X112140000Y-116550000D02*
X112140000Y-119601000D01*
X112180000Y-111543000D02*
X112180000Y-114590000D01*
X112180000Y-116550000D02*
X112180000Y-119597000D01*
X112220000Y-111548000D02*
X112220000Y-114590000D01*
X112220000Y-116550000D02*
X112220000Y-119592000D01*
X112260000Y-111553000D02*
X112260000Y-114590000D01*
X112260000Y-116550000D02*
X112260000Y-119587000D01*
X112300000Y-111558000D02*
X112300000Y-114590000D01*
X112300000Y-116550000D02*
X112300000Y-119582000D01*
X112340000Y-111564000D02*
X112340000Y-114590000D01*
X112340000Y-116550000D02*
X112340000Y-119576000D01*
X112380000Y-111570000D02*
X112380000Y-114590000D01*
X112380000Y-116550000D02*
X112380000Y-119570000D01*
X112420000Y-111576000D02*
X112420000Y-114590000D01*
X112420000Y-116550000D02*
X112420000Y-119564000D01*
X112461000Y-111583000D02*
X112461000Y-114590000D01*
X112461000Y-116550000D02*
X112461000Y-119557000D01*
X112501000Y-111591000D02*
X112501000Y-114590000D01*
X112501000Y-116550000D02*
X112501000Y-119549000D01*
X112541000Y-111599000D02*
X112541000Y-114590000D01*
X112541000Y-116550000D02*
X112541000Y-119541000D01*
X112581000Y-111607000D02*
X112581000Y-114590000D01*
X112581000Y-116550000D02*
X112581000Y-119533000D01*
X112621000Y-111615000D02*
X112621000Y-114590000D01*
X112621000Y-116550000D02*
X112621000Y-119525000D01*
X112661000Y-111624000D02*
X112661000Y-114590000D01*
X112661000Y-116550000D02*
X112661000Y-119516000D01*
X112701000Y-111634000D02*
X112701000Y-114590000D01*
X112701000Y-116550000D02*
X112701000Y-119506000D01*
X112741000Y-111644000D02*
X112741000Y-114590000D01*
X112741000Y-116550000D02*
X112741000Y-119496000D01*
X112781000Y-111654000D02*
X112781000Y-114590000D01*
X112781000Y-116550000D02*
X112781000Y-119486000D01*
X112821000Y-111665000D02*
X112821000Y-114590000D01*
X112821000Y-116550000D02*
X112821000Y-119475000D01*
X112861000Y-111676000D02*
X112861000Y-114590000D01*
X112861000Y-116550000D02*
X112861000Y-119464000D01*
X112901000Y-111687000D02*
X112901000Y-114590000D01*
X112901000Y-116550000D02*
X112901000Y-119453000D01*
X112941000Y-111700000D02*
X112941000Y-114590000D01*
X112941000Y-116550000D02*
X112941000Y-119440000D01*
X112981000Y-111712000D02*
X112981000Y-114590000D01*
X112981000Y-116550000D02*
X112981000Y-119428000D01*
X113021000Y-111725000D02*
X113021000Y-114590000D01*
X113021000Y-116550000D02*
X113021000Y-119415000D01*
X113061000Y-111738000D02*
X113061000Y-114590000D01*
X113061000Y-116550000D02*
X113061000Y-119402000D01*
X113101000Y-111752000D02*
X113101000Y-114590000D01*
X113101000Y-116550000D02*
X113101000Y-119388000D01*
X113141000Y-111767000D02*
X113141000Y-114590000D01*
X113141000Y-116550000D02*
X113141000Y-119373000D01*
X113181000Y-111781000D02*
X113181000Y-114590000D01*
X113181000Y-116550000D02*
X113181000Y-119359000D01*
X113221000Y-111797000D02*
X113221000Y-114590000D01*
X113221000Y-116550000D02*
X113221000Y-119343000D01*
X113261000Y-111812000D02*
X113261000Y-114590000D01*
X113261000Y-116550000D02*
X113261000Y-119328000D01*
X113301000Y-111829000D02*
X113301000Y-114590000D01*
X113301000Y-116550000D02*
X113301000Y-119311000D01*
X113341000Y-111845000D02*
X113341000Y-114590000D01*
X113341000Y-116550000D02*
X113341000Y-119295000D01*
X113381000Y-111863000D02*
X113381000Y-114590000D01*
X113381000Y-116550000D02*
X113381000Y-119277000D01*
X113421000Y-111880000D02*
X113421000Y-114590000D01*
X113421000Y-116550000D02*
X113421000Y-119260000D01*
X113461000Y-111899000D02*
X113461000Y-114590000D01*
X113461000Y-116550000D02*
X113461000Y-119241000D01*
X113501000Y-111918000D02*
X113501000Y-114590000D01*
X113501000Y-116550000D02*
X113501000Y-119222000D01*
X113541000Y-111937000D02*
X113541000Y-114590000D01*
X113541000Y-116550000D02*
X113541000Y-119203000D01*
X113581000Y-111957000D02*
X113581000Y-114590000D01*
X113581000Y-116550000D02*
X113581000Y-119183000D01*
X113621000Y-111977000D02*
X113621000Y-114590000D01*
X113621000Y-116550000D02*
X113621000Y-119163000D01*
X113661000Y-111998000D02*
X113661000Y-114590000D01*
X113661000Y-116550000D02*
X113661000Y-119142000D01*
X113701000Y-112020000D02*
X113701000Y-114590000D01*
X113701000Y-116550000D02*
X113701000Y-119120000D01*
X113741000Y-112042000D02*
X113741000Y-114590000D01*
X113741000Y-116550000D02*
X113741000Y-119098000D01*
X113781000Y-112065000D02*
X113781000Y-114590000D01*
X113781000Y-116550000D02*
X113781000Y-119075000D01*
X113821000Y-112088000D02*
X113821000Y-114590000D01*
X113821000Y-116550000D02*
X113821000Y-119052000D01*
X113861000Y-112112000D02*
X113861000Y-114590000D01*
X113861000Y-116550000D02*
X113861000Y-119028000D01*
X113901000Y-112136000D02*
X113901000Y-114590000D01*
X113901000Y-116550000D02*
X113901000Y-119004000D01*
X113941000Y-112162000D02*
X113941000Y-114590000D01*
X113941000Y-116550000D02*
X113941000Y-118978000D01*
X113981000Y-112187000D02*
X113981000Y-118953000D01*
X114021000Y-112214000D02*
X114021000Y-118926000D01*
X114061000Y-112241000D02*
X114061000Y-118899000D01*
X114101000Y-112269000D02*
X114101000Y-118871000D01*
X114141000Y-112298000D02*
X114141000Y-118842000D01*
X114181000Y-112327000D02*
X114181000Y-118813000D01*
X114221000Y-112357000D02*
X114221000Y-118783000D01*
X114261000Y-112388000D02*
X114261000Y-118752000D01*
X114301000Y-112420000D02*
X114301000Y-118720000D01*
X114341000Y-112452000D02*
X114341000Y-118688000D01*
X114381000Y-112486000D02*
X114381000Y-118654000D01*
X114421000Y-112520000D02*
X114421000Y-118620000D01*
X114461000Y-112555000D02*
X114461000Y-118585000D01*
X114501000Y-112591000D02*
X114501000Y-118549000D01*
X114541000Y-112628000D02*
X114541000Y-118512000D01*
X114581000Y-112666000D02*
X114581000Y-118474000D01*
X114621000Y-112705000D02*
X114621000Y-118435000D01*
X114661000Y-112746000D02*
X114661000Y-118394000D01*
X114701000Y-112787000D02*
X114701000Y-118353000D01*
X114741000Y-112830000D02*
X114741000Y-118310000D01*
X114781000Y-112873000D02*
X114781000Y-118267000D01*
X114821000Y-112918000D02*
X114821000Y-118222000D01*
X114861000Y-112965000D02*
X114861000Y-118175000D01*
X114901000Y-113013000D02*
X114901000Y-118127000D01*
X114941000Y-113062000D02*
X114941000Y-118078000D01*
X114981000Y-113113000D02*
X114981000Y-118027000D01*
X115021000Y-113166000D02*
X115021000Y-117974000D01*
X115061000Y-113221000D02*
X115061000Y-117919000D01*
X115101000Y-113277000D02*
X115101000Y-117863000D01*
X115141000Y-113336000D02*
X115141000Y-117804000D01*
X115181000Y-113397000D02*
X115181000Y-117743000D01*
X115221000Y-113461000D02*
X115221000Y-117679000D01*
X115261000Y-113527000D02*
X115261000Y-117613000D01*
X115301000Y-113596000D02*
X115301000Y-117544000D01*
X115341000Y-113668000D02*
X115341000Y-117472000D01*
X115381000Y-113744000D02*
X115381000Y-117396000D01*
X115421000Y-113825000D02*
X115421000Y-117315000D01*
X115461000Y-113910000D02*
X115461000Y-117230000D01*
X115501000Y-114000000D02*
X115501000Y-117140000D01*
X115541000Y-114097000D02*
X115541000Y-117043000D01*
X115581000Y-114201000D02*
X115581000Y-116939000D01*
X115621000Y-114316000D02*
X115621000Y-116824000D01*
X115661000Y-114443000D02*
X115661000Y-116697000D01*
X115701000Y-114587000D02*
X115701000Y-116553000D01*
X115741000Y-114756000D02*
X115741000Y-116384000D01*
X115781000Y-114972000D02*
X115781000Y-116168000D01*
X115821000Y-115324000D02*
X115821000Y-115816000D01*
X108290000Y-115570000D02*
X109490000Y-115570000D01*
X108890000Y-114920000D02*
X108890000Y-116220000D01*
D12*
X93980000Y-127000000D02*
X101600000Y-127000000D01*
X93980000Y-124460000D02*
X93980000Y-127000000D01*
X101600000Y-124460000D02*
X93980000Y-124460000D01*
X101600000Y-127000000D02*
X101600000Y-124460000D01*
X119260000Y-110330000D02*
X104260000Y-110330000D01*
X104260000Y-110330000D02*
X104260000Y-90330000D01*
X104260000Y-90330000D02*
X119260000Y-90330000D01*
X119260000Y-90330000D02*
X119260000Y-110330000D01*
X116760000Y-110330000D02*
X116760000Y-90330000D01*
X116760000Y-90330000D02*
X106760000Y-90330000D01*
X106760000Y-90330000D02*
X106760000Y-110330000D01*
X116760000Y-107950000D02*
X119260000Y-107950000D01*
D13*
X112260000Y-103290000D02*
X111260000Y-103290000D01*
X111260000Y-104990000D02*
X112260000Y-104990000D01*
X105390000Y-82525000D02*
X105390000Y-88925000D01*
X105430000Y-82525000D02*
X105430000Y-88925000D01*
X105470000Y-82525000D02*
X105470000Y-88925000D01*
X105510000Y-82527000D02*
X105510000Y-88923000D01*
X105550000Y-82528000D02*
X105550000Y-88922000D01*
X105590000Y-82531000D02*
X105590000Y-88919000D01*
X105630000Y-82533000D02*
X105630000Y-88917000D01*
X105670000Y-82537000D02*
X105670000Y-84745000D01*
X105670000Y-86705000D02*
X105670000Y-88913000D01*
X105710000Y-82540000D02*
X105710000Y-84745000D01*
X105710000Y-86705000D02*
X105710000Y-88910000D01*
X105750000Y-82545000D02*
X105750000Y-84745000D01*
X105750000Y-86705000D02*
X105750000Y-88905000D01*
X105790000Y-82549000D02*
X105790000Y-84745000D01*
X105790000Y-86705000D02*
X105790000Y-88901000D01*
X105830000Y-82555000D02*
X105830000Y-84745000D01*
X105830000Y-86705000D02*
X105830000Y-88895000D01*
X105870000Y-82560000D02*
X105870000Y-84745000D01*
X105870000Y-86705000D02*
X105870000Y-88890000D01*
X105910000Y-82567000D02*
X105910000Y-84745000D01*
X105910000Y-86705000D02*
X105910000Y-88883000D01*
X105950000Y-82573000D02*
X105950000Y-84745000D01*
X105950000Y-86705000D02*
X105950000Y-88877000D01*
X105990000Y-82581000D02*
X105990000Y-84745000D01*
X105990000Y-86705000D02*
X105990000Y-88869000D01*
X106030000Y-82588000D02*
X106030000Y-84745000D01*
X106030000Y-86705000D02*
X106030000Y-88862000D01*
X106070000Y-82597000D02*
X106070000Y-84745000D01*
X106070000Y-86705000D02*
X106070000Y-88853000D01*
X106111000Y-82606000D02*
X106111000Y-84745000D01*
X106111000Y-86705000D02*
X106111000Y-88844000D01*
X106151000Y-82615000D02*
X106151000Y-84745000D01*
X106151000Y-86705000D02*
X106151000Y-88835000D01*
X106191000Y-82625000D02*
X106191000Y-84745000D01*
X106191000Y-86705000D02*
X106191000Y-88825000D01*
X106231000Y-82635000D02*
X106231000Y-84745000D01*
X106231000Y-86705000D02*
X106231000Y-88815000D01*
X106271000Y-82646000D02*
X106271000Y-84745000D01*
X106271000Y-86705000D02*
X106271000Y-88804000D01*
X106311000Y-82658000D02*
X106311000Y-84745000D01*
X106311000Y-86705000D02*
X106311000Y-88792000D01*
X106351000Y-82670000D02*
X106351000Y-84745000D01*
X106351000Y-86705000D02*
X106351000Y-88780000D01*
X106391000Y-82683000D02*
X106391000Y-84745000D01*
X106391000Y-86705000D02*
X106391000Y-88767000D01*
X106431000Y-82696000D02*
X106431000Y-84745000D01*
X106431000Y-86705000D02*
X106431000Y-88754000D01*
X106471000Y-82710000D02*
X106471000Y-84745000D01*
X106471000Y-86705000D02*
X106471000Y-88740000D01*
X106511000Y-82724000D02*
X106511000Y-84745000D01*
X106511000Y-86705000D02*
X106511000Y-88726000D01*
X106551000Y-82739000D02*
X106551000Y-84745000D01*
X106551000Y-86705000D02*
X106551000Y-88711000D01*
X106591000Y-82755000D02*
X106591000Y-84745000D01*
X106591000Y-86705000D02*
X106591000Y-88695000D01*
X106631000Y-82771000D02*
X106631000Y-84745000D01*
X106631000Y-86705000D02*
X106631000Y-88679000D01*
X106671000Y-82788000D02*
X106671000Y-84745000D01*
X106671000Y-86705000D02*
X106671000Y-88662000D01*
X106711000Y-82806000D02*
X106711000Y-84745000D01*
X106711000Y-86705000D02*
X106711000Y-88644000D01*
X106751000Y-82824000D02*
X106751000Y-84745000D01*
X106751000Y-86705000D02*
X106751000Y-88626000D01*
X106791000Y-82843000D02*
X106791000Y-84745000D01*
X106791000Y-86705000D02*
X106791000Y-88607000D01*
X106831000Y-82862000D02*
X106831000Y-84745000D01*
X106831000Y-86705000D02*
X106831000Y-88588000D01*
X106871000Y-82882000D02*
X106871000Y-84745000D01*
X106871000Y-86705000D02*
X106871000Y-88568000D01*
X106911000Y-82903000D02*
X106911000Y-84745000D01*
X106911000Y-86705000D02*
X106911000Y-88547000D01*
X106951000Y-82925000D02*
X106951000Y-84745000D01*
X106951000Y-86705000D02*
X106951000Y-88525000D01*
X106991000Y-82947000D02*
X106991000Y-84745000D01*
X106991000Y-86705000D02*
X106991000Y-88503000D01*
X107031000Y-82970000D02*
X107031000Y-84745000D01*
X107031000Y-86705000D02*
X107031000Y-88480000D01*
X107071000Y-82994000D02*
X107071000Y-84745000D01*
X107071000Y-86705000D02*
X107071000Y-88456000D01*
X107111000Y-83019000D02*
X107111000Y-84745000D01*
X107111000Y-86705000D02*
X107111000Y-88431000D01*
X107151000Y-83044000D02*
X107151000Y-84745000D01*
X107151000Y-86705000D02*
X107151000Y-88406000D01*
X107191000Y-83071000D02*
X107191000Y-84745000D01*
X107191000Y-86705000D02*
X107191000Y-88379000D01*
X107231000Y-83098000D02*
X107231000Y-84745000D01*
X107231000Y-86705000D02*
X107231000Y-88352000D01*
X107271000Y-83126000D02*
X107271000Y-84745000D01*
X107271000Y-86705000D02*
X107271000Y-88324000D01*
X107311000Y-83155000D02*
X107311000Y-84745000D01*
X107311000Y-86705000D02*
X107311000Y-88295000D01*
X107351000Y-83185000D02*
X107351000Y-84745000D01*
X107351000Y-86705000D02*
X107351000Y-88265000D01*
X107391000Y-83215000D02*
X107391000Y-84745000D01*
X107391000Y-86705000D02*
X107391000Y-88235000D01*
X107431000Y-83247000D02*
X107431000Y-84745000D01*
X107431000Y-86705000D02*
X107431000Y-88203000D01*
X107471000Y-83280000D02*
X107471000Y-84745000D01*
X107471000Y-86705000D02*
X107471000Y-88170000D01*
X107511000Y-83314000D02*
X107511000Y-84745000D01*
X107511000Y-86705000D02*
X107511000Y-88136000D01*
X107551000Y-83350000D02*
X107551000Y-84745000D01*
X107551000Y-86705000D02*
X107551000Y-88100000D01*
X107591000Y-83386000D02*
X107591000Y-84745000D01*
X107591000Y-86705000D02*
X107591000Y-88064000D01*
X107631000Y-83424000D02*
X107631000Y-88026000D01*
X107671000Y-83463000D02*
X107671000Y-87987000D01*
X107711000Y-83503000D02*
X107711000Y-87947000D01*
X107751000Y-83545000D02*
X107751000Y-87905000D01*
X107791000Y-83588000D02*
X107791000Y-87862000D01*
X107831000Y-83633000D02*
X107831000Y-87817000D01*
X107871000Y-83680000D02*
X107871000Y-87770000D01*
X107911000Y-83728000D02*
X107911000Y-87722000D01*
X107951000Y-83779000D02*
X107951000Y-87671000D01*
X107991000Y-83831000D02*
X107991000Y-87619000D01*
X108031000Y-83886000D02*
X108031000Y-87564000D01*
X108071000Y-83944000D02*
X108071000Y-87506000D01*
X108111000Y-84004000D02*
X108111000Y-87446000D01*
X108151000Y-84067000D02*
X108151000Y-87383000D01*
X108191000Y-84134000D02*
X108191000Y-87316000D01*
X108231000Y-84205000D02*
X108231000Y-87245000D01*
X108271000Y-84280000D02*
X108271000Y-87170000D01*
X108311000Y-84361000D02*
X108311000Y-87089000D01*
X108351000Y-84447000D02*
X108351000Y-87003000D01*
X108391000Y-84541000D02*
X108391000Y-86909000D01*
X108431000Y-84644000D02*
X108431000Y-86806000D01*
X108471000Y-84759000D02*
X108471000Y-86691000D01*
X108511000Y-84891000D02*
X108511000Y-86559000D01*
X108551000Y-85049000D02*
X108551000Y-86401000D01*
X108591000Y-85257000D02*
X108591000Y-86193000D01*
X101940000Y-85725000D02*
X103140000Y-85725000D01*
X102540000Y-85075000D02*
X102540000Y-86375000D01*
X108407820Y-86904136D02*
G75*
G03*
X108407482Y-84545000I-3017820J1179136D01*
G01*
X108407820Y-86904136D02*
G75*
G02*
X102372518Y-86905000I-3017820J1179136D01*
G01*
X108407820Y-84545864D02*
G75*
G03*
X102372518Y-84545000I-3017820J-1179136D01*
G01*
D12*
X101266666Y-98512380D02*
X101266666Y-99226666D01*
X101219047Y-99369523D01*
X101123809Y-99464761D01*
X100980952Y-99512380D01*
X100885714Y-99512380D01*
X102219047Y-98512380D02*
X101742857Y-98512380D01*
X101695238Y-98988571D01*
X101742857Y-98940952D01*
X101838095Y-98893333D01*
X102076190Y-98893333D01*
X102171428Y-98940952D01*
X102219047Y-98988571D01*
X102266666Y-99083809D01*
X102266666Y-99321904D01*
X102219047Y-99417142D01*
X102171428Y-99464761D01*
X102076190Y-99512380D01*
X101838095Y-99512380D01*
X101742857Y-99464761D01*
X101695238Y-99417142D01*
X101266666Y-111212380D02*
X101266666Y-111926666D01*
X101219047Y-112069523D01*
X101123809Y-112164761D01*
X100980952Y-112212380D01*
X100885714Y-112212380D01*
X101695238Y-111307619D02*
X101742857Y-111260000D01*
X101838095Y-111212380D01*
X102076190Y-111212380D01*
X102171428Y-111260000D01*
X102219047Y-111307619D01*
X102266666Y-111402857D01*
X102266666Y-111498095D01*
X102219047Y-111640952D01*
X101647619Y-112212380D01*
X102266666Y-112212380D01*
X119888095Y-35012380D02*
X119888095Y-35821904D01*
X119935714Y-35917142D01*
X119983333Y-35964761D01*
X120078571Y-36012380D01*
X120269047Y-36012380D01*
X120364285Y-35964761D01*
X120411904Y-35917142D01*
X120459523Y-35821904D01*
X120459523Y-35012380D01*
X121459523Y-36012380D02*
X120888095Y-36012380D01*
X121173809Y-36012380D02*
X121173809Y-35012380D01*
X121078571Y-35155238D01*
X120983333Y-35250476D01*
X120888095Y-35298095D01*
X107688095Y-69302380D02*
X107688095Y-70111904D01*
X107735714Y-70207142D01*
X107783333Y-70254761D01*
X107878571Y-70302380D01*
X108069047Y-70302380D01*
X108164285Y-70254761D01*
X108211904Y-70207142D01*
X108259523Y-70111904D01*
X108259523Y-69302380D01*
X108640476Y-69302380D02*
X109259523Y-69302380D01*
X108926190Y-69683333D01*
X109069047Y-69683333D01*
X109164285Y-69730952D01*
X109211904Y-69778571D01*
X109259523Y-69873809D01*
X109259523Y-70111904D01*
X109211904Y-70207142D01*
X109164285Y-70254761D01*
X109069047Y-70302380D01*
X108783333Y-70302380D01*
X108688095Y-70254761D01*
X108640476Y-70207142D01*
X114407142Y-76771428D02*
X114407142Y-75628571D01*
X114978571Y-76200000D02*
X113835714Y-76200000D01*
X101707142Y-76771428D02*
X101707142Y-75628571D01*
X114855714Y-129706666D02*
X115331904Y-129706666D01*
X114760476Y-129992380D02*
X115093809Y-128992380D01*
X115427142Y-129992380D01*
X115712857Y-129087619D02*
X115760476Y-129040000D01*
X115855714Y-128992380D01*
X116093809Y-128992380D01*
X116189047Y-129040000D01*
X116236666Y-129087619D01*
X116284285Y-129182857D01*
X116284285Y-129278095D01*
X116236666Y-129420952D01*
X115665238Y-129992380D01*
X116284285Y-129992380D01*
X113538095Y-36282380D02*
X113538095Y-37091904D01*
X113585714Y-37187142D01*
X113633333Y-37234761D01*
X113728571Y-37282380D01*
X113919047Y-37282380D01*
X114014285Y-37234761D01*
X114061904Y-37187142D01*
X114109523Y-37091904D01*
X114109523Y-36282380D01*
X114538095Y-36377619D02*
X114585714Y-36330000D01*
X114680952Y-36282380D01*
X114919047Y-36282380D01*
X115014285Y-36330000D01*
X115061904Y-36377619D01*
X115109523Y-36472857D01*
X115109523Y-36568095D01*
X115061904Y-36710952D01*
X114490476Y-37282380D01*
X115109523Y-37282380D01*
X111593333Y-100687142D02*
X111545714Y-100734761D01*
X111402857Y-100782380D01*
X111307619Y-100782380D01*
X111164761Y-100734761D01*
X111069523Y-100639523D01*
X111021904Y-100544285D01*
X110974285Y-100353809D01*
X110974285Y-100210952D01*
X111021904Y-100020476D01*
X111069523Y-99925238D01*
X111164761Y-99830000D01*
X111307619Y-99782380D01*
X111402857Y-99782380D01*
X111545714Y-99830000D01*
X111593333Y-99877619D01*
X112450476Y-100115714D02*
X112450476Y-100782380D01*
X112212380Y-99734761D02*
X111974285Y-100449047D01*
X112593333Y-100449047D01*
X120316666Y-113752380D02*
X120316666Y-114466666D01*
X120269047Y-114609523D01*
X120173809Y-114704761D01*
X120030952Y-114752380D01*
X119935714Y-114752380D01*
X121316666Y-114752380D02*
X120745238Y-114752380D01*
X121030952Y-114752380D02*
X121030952Y-113752380D01*
X120935714Y-113895238D01*
X120840476Y-113990476D01*
X120745238Y-114038095D01*
X120316666Y-106132380D02*
X120316666Y-106846666D01*
X120269047Y-106989523D01*
X120173809Y-107084761D01*
X120030952Y-107132380D01*
X119935714Y-107132380D01*
X121221428Y-106465714D02*
X121221428Y-107132380D01*
X120983333Y-106084761D02*
X120745238Y-106799047D01*
X121364285Y-106799047D01*
X120316666Y-126242380D02*
X120316666Y-126956666D01*
X120269047Y-127099523D01*
X120173809Y-127194761D01*
X120030952Y-127242380D01*
X119935714Y-127242380D01*
X120697619Y-126242380D02*
X121364285Y-126242380D01*
X120935714Y-127242380D01*
X95051666Y-37552380D02*
X95051666Y-38266666D01*
X95004047Y-38409523D01*
X94908809Y-38504761D01*
X94765952Y-38552380D01*
X94670714Y-38552380D01*
X95527857Y-38552380D02*
X95527857Y-37552380D01*
X95908809Y-37552380D01*
X96004047Y-37600000D01*
X96051666Y-37647619D01*
X96099285Y-37742857D01*
X96099285Y-37885714D01*
X96051666Y-37980952D01*
X96004047Y-38028571D01*
X95908809Y-38076190D01*
X95527857Y-38076190D01*
X97051666Y-38552380D02*
X96480238Y-38552380D01*
X96765952Y-38552380D02*
X96765952Y-37552380D01*
X96670714Y-37695238D01*
X96575476Y-37790476D01*
X96480238Y-37838095D01*
X99996666Y-117562380D02*
X99996666Y-118276666D01*
X99949047Y-118419523D01*
X99853809Y-118514761D01*
X99710952Y-118562380D01*
X99615714Y-118562380D01*
X100377619Y-117562380D02*
X100996666Y-117562380D01*
X100663333Y-117943333D01*
X100806190Y-117943333D01*
X100901428Y-117990952D01*
X100949047Y-118038571D01*
X100996666Y-118133809D01*
X100996666Y-118371904D01*
X100949047Y-118467142D01*
X100901428Y-118514761D01*
X100806190Y-118562380D01*
X100520476Y-118562380D01*
X100425238Y-118514761D01*
X100377619Y-118467142D01*
X111573333Y-121007142D02*
X111525714Y-121054761D01*
X111382857Y-121102380D01*
X111287619Y-121102380D01*
X111144761Y-121054761D01*
X111049523Y-120959523D01*
X111001904Y-120864285D01*
X110954285Y-120673809D01*
X110954285Y-120530952D01*
X111001904Y-120340476D01*
X111049523Y-120245238D01*
X111144761Y-120150000D01*
X111287619Y-120102380D01*
X111382857Y-120102380D01*
X111525714Y-120150000D01*
X111573333Y-120197619D01*
X111954285Y-120197619D02*
X112001904Y-120150000D01*
X112097142Y-120102380D01*
X112335238Y-120102380D01*
X112430476Y-120150000D01*
X112478095Y-120197619D01*
X112525714Y-120292857D01*
X112525714Y-120388095D01*
X112478095Y-120530952D01*
X111906666Y-121102380D01*
X112525714Y-121102380D01*
X97456666Y-125658571D02*
X97123333Y-125658571D01*
X97123333Y-126182380D02*
X97123333Y-125182380D01*
X97599523Y-125182380D01*
X98504285Y-126182380D02*
X97932857Y-126182380D01*
X98218571Y-126182380D02*
X98218571Y-125182380D01*
X98123333Y-125325238D01*
X98028095Y-125420476D01*
X97932857Y-125468095D01*
X114855714Y-109386666D02*
X115331904Y-109386666D01*
X114760476Y-109672380D02*
X115093809Y-108672380D01*
X115427142Y-109672380D01*
X116284285Y-109672380D02*
X115712857Y-109672380D01*
X115998571Y-109672380D02*
X115998571Y-108672380D01*
X115903333Y-108815238D01*
X115808095Y-108910476D01*
X115712857Y-108958095D01*
X111593333Y-106402142D02*
X111545714Y-106449761D01*
X111402857Y-106497380D01*
X111307619Y-106497380D01*
X111164761Y-106449761D01*
X111069523Y-106354523D01*
X111021904Y-106259285D01*
X110974285Y-106068809D01*
X110974285Y-105925952D01*
X111021904Y-105735476D01*
X111069523Y-105640238D01*
X111164761Y-105545000D01*
X111307619Y-105497380D01*
X111402857Y-105497380D01*
X111545714Y-105545000D01*
X111593333Y-105592619D01*
X112498095Y-105497380D02*
X112021904Y-105497380D01*
X111974285Y-105973571D01*
X112021904Y-105925952D01*
X112117142Y-105878333D01*
X112355238Y-105878333D01*
X112450476Y-105925952D01*
X112498095Y-105973571D01*
X112545714Y-106068809D01*
X112545714Y-106306904D01*
X112498095Y-106402142D01*
X112450476Y-106449761D01*
X112355238Y-106497380D01*
X112117142Y-106497380D01*
X112021904Y-106449761D01*
X111974285Y-106402142D01*
X100163333Y-86717142D02*
X100115714Y-86764761D01*
X99972857Y-86812380D01*
X99877619Y-86812380D01*
X99734761Y-86764761D01*
X99639523Y-86669523D01*
X99591904Y-86574285D01*
X99544285Y-86383809D01*
X99544285Y-86240952D01*
X99591904Y-86050476D01*
X99639523Y-85955238D01*
X99734761Y-85860000D01*
X99877619Y-85812380D01*
X99972857Y-85812380D01*
X100115714Y-85860000D01*
X100163333Y-85907619D01*
X101020476Y-85812380D02*
X100830000Y-85812380D01*
X100734761Y-85860000D01*
X100687142Y-85907619D01*
X100591904Y-86050476D01*
X100544285Y-86240952D01*
X100544285Y-86621904D01*
X100591904Y-86717142D01*
X100639523Y-86764761D01*
X100734761Y-86812380D01*
X100925238Y-86812380D01*
X101020476Y-86764761D01*
X101068095Y-86717142D01*
X101115714Y-86621904D01*
X101115714Y-86383809D01*
X101068095Y-86288571D01*
X101020476Y-86240952D01*
X100925238Y-86193333D01*
X100734761Y-86193333D01*
X100639523Y-86240952D01*
X100591904Y-86288571D01*
X100544285Y-86383809D01*
X97456666Y-128357380D02*
X97456666Y-129071666D01*
X97409047Y-129214523D01*
X97313809Y-129309761D01*
X97170952Y-129357380D01*
X97075714Y-129357380D01*
X98361428Y-128357380D02*
X98170952Y-128357380D01*
X98075714Y-128405000D01*
X98028095Y-128452619D01*
X97932857Y-128595476D01*
X97885238Y-128785952D01*
X97885238Y-129166904D01*
X97932857Y-129262142D01*
X97980476Y-129309761D01*
X98075714Y-129357380D01*
X98266190Y-129357380D01*
X98361428Y-129309761D01*
X98409047Y-129262142D01*
X98456666Y-129166904D01*
X98456666Y-128928809D01*
X98409047Y-128833571D01*
X98361428Y-128785952D01*
X98266190Y-128738333D01*
X98075714Y-128738333D01*
X97980476Y-128785952D01*
X97932857Y-128833571D01*
X97885238Y-128928809D01*
%LPC*%
D14*
X96520000Y-96520000D03*
X99060000Y-96520000D03*
X101600000Y-96520000D03*
X96520000Y-93980000D03*
X99060000Y-93980000D03*
X101600000Y-93980000D03*
X96520000Y-91440000D03*
X99060000Y-91440000D03*
G36*
G01*
X100700000Y-90340000D02*
X102500000Y-90340000D01*
G75*
G02*
X102700000Y-90540000I0J-200000D01*
G01*
X102700000Y-92340000D01*
G75*
G02*
X102500000Y-92540000I-200000J0D01*
G01*
X100700000Y-92540000D01*
G75*
G02*
X100500000Y-92340000I0J200000D01*
G01*
X100500000Y-90540000D01*
G75*
G02*
X100700000Y-90340000I200000J0D01*
G01*
G37*
X96520000Y-109220000D03*
X99060000Y-109220000D03*
X101600000Y-109220000D03*
X96520000Y-106680000D03*
X99060000Y-106680000D03*
X101600000Y-106680000D03*
X96520000Y-104140000D03*
X99060000Y-104140000D03*
X101600000Y-104140000D03*
X96520000Y-101600000D03*
X99060000Y-101600000D03*
G36*
G01*
X100700000Y-100500000D02*
X102500000Y-100500000D01*
G75*
G02*
X102700000Y-100700000I0J-200000D01*
G01*
X102700000Y-102500000D01*
G75*
G02*
X102500000Y-102700000I-200000J0D01*
G01*
X100700000Y-102700000D01*
G75*
G02*
X100500000Y-102500000I0J200000D01*
G01*
X100500000Y-100700000D01*
G75*
G02*
X100700000Y-100500000I200000J0D01*
G01*
G37*
X120725001Y-44450000D03*
X120725001Y-46990000D03*
X120725001Y-49530000D03*
X120725001Y-52070000D03*
X120725001Y-54610000D03*
X120725001Y-57150000D03*
X120725001Y-59690000D03*
X120725001Y-62230000D03*
X120725001Y-64770000D03*
X120725001Y-67310000D03*
X120725001Y-69850000D03*
X120725001Y-72390000D03*
X120725001Y-74930000D03*
X120725001Y-77470000D03*
X120725001Y-80010000D03*
X95325001Y-80010000D03*
X95325001Y-77470000D03*
X95325001Y-74930000D03*
X95325001Y-72390000D03*
X95325001Y-69850000D03*
X95325001Y-67310000D03*
X95325001Y-64770000D03*
X95325001Y-62230000D03*
X95325001Y-59690000D03*
X95325001Y-57150000D03*
X95325001Y-54610000D03*
X95325001Y-52070000D03*
X95325001Y-49530000D03*
X95325001Y-46990000D03*
G36*
G01*
X94225001Y-45350000D02*
X94225001Y-43550000D01*
G75*
G02*
X94425001Y-43350000I200000J0D01*
G01*
X96225001Y-43350000D01*
G75*
G02*
X96425001Y-43550000I0J-200000D01*
G01*
X96425001Y-45350000D01*
G75*
G02*
X96225001Y-45550000I-200000J0D01*
G01*
X94425001Y-45550000D01*
G75*
G02*
X94225001Y-45350000I0J200000D01*
G01*
G37*
X101250000Y-60550000D03*
X114650000Y-60550000D03*
X114650000Y-79150000D03*
X101250000Y-79150000D03*
X118110000Y-129540000D03*
X118110000Y-127000000D03*
X118110000Y-124460000D03*
X118110000Y-121920000D03*
X118110000Y-119380000D03*
X118110000Y-116840000D03*
X118110000Y-114300000D03*
X118110000Y-111760000D03*
X105410000Y-111760000D03*
X105410000Y-114300000D03*
X105410000Y-116840000D03*
X105410000Y-119380000D03*
X105410000Y-121920000D03*
X105410000Y-124460000D03*
X105410000Y-127000000D03*
X105410000Y-129540000D03*
D15*
X111440000Y-55020000D03*
D14*
X99060000Y-49530000D03*
X101600000Y-49530000D03*
X104140000Y-49530000D03*
X106680000Y-49530000D03*
X109220000Y-49530000D03*
X111760000Y-49530000D03*
X114300000Y-49530000D03*
G36*
G01*
X115940000Y-48430000D02*
X117740000Y-48430000D01*
G75*
G02*
X117940000Y-48630000I0J-200000D01*
G01*
X117940000Y-50430000D01*
G75*
G02*
X117740000Y-50630000I-200000J0D01*
G01*
X115940000Y-50630000D01*
G75*
G02*
X115740000Y-50430000I0J200000D01*
G01*
X115740000Y-48630000D01*
G75*
G02*
X115940000Y-48430000I200000J0D01*
G01*
G37*
G36*
G01*
X109490000Y-96050000D02*
X109490000Y-94450000D01*
G75*
G02*
X109690000Y-94250000I200000J0D01*
G01*
X111290000Y-94250000D01*
G75*
G02*
X111490000Y-94450000I0J-200000D01*
G01*
X111490000Y-96050000D01*
G75*
G02*
X111290000Y-96250000I-200000J0D01*
G01*
X109690000Y-96250000D01*
G75*
G02*
X109490000Y-96050000I0J200000D01*
G01*
G37*
D16*
X112990000Y-95250000D03*
G36*
G01*
X121700000Y-110910000D02*
X121700000Y-112610000D01*
G75*
G02*
X121500000Y-112810000I-200000J0D01*
G01*
X119800000Y-112810000D01*
G75*
G02*
X119600000Y-112610000I0J200000D01*
G01*
X119600000Y-110910000D01*
G75*
G02*
X119800000Y-110710000I200000J0D01*
G01*
X121500000Y-110710000D01*
G75*
G02*
X121700000Y-110910000I0J-200000D01*
G01*
G37*
D17*
X120650000Y-109220000D03*
G36*
G01*
X121700000Y-103290000D02*
X121700000Y-104990000D01*
G75*
G02*
X121500000Y-105190000I-200000J0D01*
G01*
X119800000Y-105190000D01*
G75*
G02*
X119600000Y-104990000I0J200000D01*
G01*
X119600000Y-103290000D01*
G75*
G02*
X119800000Y-103090000I200000J0D01*
G01*
X121500000Y-103090000D01*
G75*
G02*
X121700000Y-103290000I0J-200000D01*
G01*
G37*
X120650000Y-101600000D03*
X120650000Y-99060000D03*
X120650000Y-96520000D03*
G36*
G01*
X121700000Y-123610000D02*
X121700000Y-125310000D01*
G75*
G02*
X121500000Y-125510000I-200000J0D01*
G01*
X119800000Y-125510000D01*
G75*
G02*
X119600000Y-125310000I0J200000D01*
G01*
X119600000Y-123610000D01*
G75*
G02*
X119800000Y-123410000I200000J0D01*
G01*
X121500000Y-123410000D01*
G75*
G02*
X121700000Y-123610000I0J-200000D01*
G01*
G37*
X120650000Y-121920000D03*
X120650000Y-119380000D03*
X120650000Y-116840000D03*
G36*
G01*
X95730001Y-40840000D02*
X94759999Y-40840000D01*
G75*
G02*
X94560000Y-40640001I0J199999D01*
G01*
X94560000Y-39369999D01*
G75*
G02*
X94759999Y-39170000I199999J0D01*
G01*
X95730001Y-39170000D01*
G75*
G02*
X95930000Y-39369999I0J-199999D01*
G01*
X95930000Y-40640001D01*
G75*
G02*
X95730001Y-40840000I-199999J0D01*
G01*
G37*
G36*
G01*
X97010001Y-40840000D02*
X96039999Y-40840000D01*
G75*
G02*
X95840000Y-40640001I0J199999D01*
G01*
X95840000Y-39369999D01*
G75*
G02*
X96039999Y-39170000I199999J0D01*
G01*
X97010001Y-39170000D01*
G75*
G02*
X97210000Y-39369999I0J-199999D01*
G01*
X97210000Y-40640001D01*
G75*
G02*
X97010001Y-40840000I-199999J0D01*
G01*
G37*
D18*
X97790000Y-115570000D03*
X97790000Y-120650000D03*
D16*
X112990000Y-115570000D03*
G36*
G01*
X109490000Y-116370000D02*
X109490000Y-114770000D01*
G75*
G02*
X109690000Y-114570000I200000J0D01*
G01*
X111290000Y-114570000D01*
G75*
G02*
X111490000Y-114770000I0J-200000D01*
G01*
X111490000Y-116370000D01*
G75*
G02*
X111290000Y-116570000I-200000J0D01*
G01*
X109690000Y-116570000D01*
G75*
G02*
X109490000Y-116370000I0J200000D01*
G01*
G37*
D15*
X111440000Y-126020000D03*
D16*
X100330000Y-125730000D03*
X95250000Y-125730000D03*
D14*
X105410000Y-109220000D03*
X105410000Y-106680000D03*
X105410000Y-104140000D03*
X105410000Y-101600000D03*
X105410000Y-99060000D03*
X105410000Y-96520000D03*
X105410000Y-93980000D03*
X105410000Y-91440000D03*
X118110000Y-91440000D03*
X118110000Y-93980000D03*
X118110000Y-96520000D03*
X118110000Y-99060000D03*
X118110000Y-101600000D03*
X118110000Y-104140000D03*
X118110000Y-106680000D03*
X118110000Y-109220000D03*
G36*
G01*
X112060000Y-104765000D02*
X112060000Y-103515000D01*
G75*
G02*
X112260000Y-103315000I200000J0D01*
G01*
X113760000Y-103315000D01*
G75*
G02*
X113960000Y-103515000I0J-200000D01*
G01*
X113960000Y-104765000D01*
G75*
G02*
X113760000Y-104965000I-200000J0D01*
G01*
X112260000Y-104965000D01*
G75*
G02*
X112060000Y-104765000I0J200000D01*
G01*
G37*
G36*
G01*
X109560000Y-104765000D02*
X109560000Y-103515000D01*
G75*
G02*
X109760000Y-103315000I200000J0D01*
G01*
X111260000Y-103315000D01*
G75*
G02*
X111460000Y-103515000I0J-200000D01*
G01*
X111460000Y-104765000D01*
G75*
G02*
X111260000Y-104965000I-200000J0D01*
G01*
X109760000Y-104965000D01*
G75*
G02*
X109560000Y-104765000I0J200000D01*
G01*
G37*
D16*
X106640000Y-85725000D03*
G36*
G01*
X103140000Y-86525000D02*
X103140000Y-84925000D01*
G75*
G02*
X103340000Y-84725000I200000J0D01*
G01*
X104940000Y-84725000D01*
G75*
G02*
X105140000Y-84925000I0J-200000D01*
G01*
X105140000Y-86525000D01*
G75*
G02*
X104940000Y-86725000I-200000J0D01*
G01*
X103340000Y-86725000D01*
G75*
G02*
X103140000Y-86525000I0J200000D01*
G01*
G37*
D14*
X100330000Y-128905000D03*
X95250000Y-128905000D03*
M02*
